<svg width="88" height="108" viewBox="0 0 88 108" fill="none" xmlns="http://www.w3.org/2000/svg">
<path d="M61.3674 70.0108C61.9901 71.9739 59.1948 73.1617 58.1958 71.3598C57.666 70.4047 56.9963 69.5308 56.1879 68.78C53.2404 66.0414 49.0413 65.2599 45.0119 65.0962C43.9077 65.0506 43.0201 65.9836 43.1488 67.0741L47.078 100.339C47.5014 103.925 43.7913 107.303 38.7938 107.886C33.7926 108.47 29.3967 106.039 28.9733 102.454C28.55 98.8684 32.26 95.4898 37.26 94.9064C39.0612 94.6959 40.7819 94.8768 42.2674 95.3642L37.7651 57.2485C37.5571 55.4922 38.8297 54.7315 40.2719 55.4171C41.3823 56.3328 42.645 57.1267 43.873 57.8504C47.0037 59.6917 50.5343 60.7526 53.7801 62.381C57.0272 64.0131 60.1332 66.4242 61.3117 69.8471C61.3302 69.9013 61.3488 69.9566 61.3661 70.0133L61.3674 70.0108Z" fill="#FD8CD2"/>
<path d="M82.1978 32.4704L80.9809 42.7218C81.6804 42.4683 82.5048 42.3649 83.3701 42.4609C85.6479 42.712 87.3463 44.2407 87.1644 45.8739C86.9824 47.5072 84.9868 48.6285 82.7091 48.3762C80.4313 48.1239 78.7329 46.5964 78.9148 44.9631C78.9148 44.9533 78.9173 44.9447 78.9186 44.9348L80.0636 35.3185L69.5214 31.5289L68.3615 41.2781C69.0374 41.0529 69.8198 40.9642 70.6405 41.0553C72.9183 41.3064 74.6168 42.8351 74.4348 44.4684C74.2528 46.1016 72.2573 47.2229 69.9795 46.9706C67.7017 46.7195 66.0033 45.1908 66.1852 43.5576L68.026 27.7097C68.1672 26.4505 69.4856 25.68 70.6604 26.1711L81.0391 30.5122C81.8178 30.8384 82.2882 31.6347 82.1953 32.4692L82.1978 32.4704Z" fill="#1C97D1"/>
<path d="M15.3615 4.77466L16.0238 14.8895C16.6539 14.5214 17.4314 14.2753 18.2843 14.215C20.5286 14.055 22.4437 15.2292 22.5601 16.8391C22.6764 18.449 20.9508 19.8841 18.7064 20.0453C16.462 20.2066 14.547 19.0311 14.4306 17.4212C14.4306 17.4126 14.4306 17.4028 14.4306 17.3942L13.8141 7.90461L2.95506 6.11255L3.58144 15.7326C4.19297 15.3953 4.93449 15.1713 5.74285 15.1135C7.98721 14.9522 9.90229 16.1277 10.0187 17.7376C10.135 19.3475 8.40935 20.7826 6.16499 20.9438C3.92063 21.105 2.00557 19.9296 1.8892 18.3197L0.828293 2.68967C0.737925 1.44902 1.87434 0.470523 3.09741 0.737608L13.8971 3.09092C14.7079 3.26692 15.3046 3.95371 15.364 4.77589L15.3615 4.77466Z" fill="#FFBA0A"/>
<path d="M16.3373 51.2192C16.4426 51.4629 16.1145 51.6623 15.9437 51.458C14.8333 50.1348 13.1224 49.2868 11.4091 49.4394C9.60672 49.5994 8.08778 50.7638 6.82757 52.0549C6.48838 52.402 6.54656 52.9718 6.94641 53.2512L15.0585 58.9277C16.3868 59.857 16.4116 62.0946 15.1167 63.9248C13.8206 65.7563 11.6926 66.4874 10.3656 65.5581C9.03728 64.6288 9.01253 62.3912 10.3086 60.5598C10.7753 59.9001 11.3497 59.3844 11.9563 59.0373L2.04671 52.1029C1.39556 51.6475 1.5206 50.9989 2.18041 50.7256C2.81918 50.6308 3.46165 50.4499 4.07071 50.2579C5.62183 49.7705 7.03185 48.9163 8.54583 48.3268C10.0623 47.7384 11.7966 47.4283 13.2957 48.0585C14.426 48.5335 15.7666 49.8887 16.3373 51.2179V51.2192Z" fill="#F8441F"/>
</svg>
