<svg width="106" height="108" viewBox="0 0 106 108" fill="none" xmlns="http://www.w3.org/2000/svg">
<g clip-path="url(#clip0_260_2241)">
<g opacity="0.2">
<path d="M53.0002 105.407C78.7808 105.407 99.6801 102.578 99.6801 99.0896C99.6801 95.6007 78.7808 92.7725 53.0002 92.7725C27.2196 92.7725 6.32031 95.6007 6.32031 99.0896C6.32031 102.578 27.2196 105.407 53.0002 105.407Z" fill="#03302D"/>
</g>
<path d="M89.683 58.1529C89.683 58.1529 92.4888 61.9985 91.8874 67.2188C91.8182 67.8325 91.6988 68.4659 91.5245 69.1133C89.8612 75.2676 87.6369 84.9598 78.9636 85.5523C78.4478 85.5878 77.9478 85.5946 77.4637 85.5752C69.7937 85.2851 66.0341 78.6093 67.6657 76.6897C69.4005 74.6482 72.8253 75.7805 72.8253 75.7805C73.0158 76.7622 73.7221 77.4203 74.5973 77.7406C76.5792 78.4676 79.4279 77.4576 79.1415 74.5158C79.1415 74.5158 81.3654 66.5538 79.8532 63.4812C78.341 60.4085 74.8253 54.7477 78.2732 50.414C81.7211 46.0799 87.9929 49.0431 89.683 50.414C91.1454 51.599 93.672 51.6273 95.1629 50.9817C95.396 50.8827 95.6023 50.7658 95.7769 50.6349C97.0669 49.6618 99.0239 56.782 89.6833 58.1529H89.683Z" fill="#8FCDBC"/>
<g opacity="0.6">
<path d="M79.5597 75.8602C79.8461 78.802 76.9978 79.812 75.0155 79.085C74.14 78.7647 73.4337 78.1069 73.2436 77.1249C73.2436 77.1249 69.8187 75.9929 68.0839 78.0341C67.7495 78.4286 67.6409 79.0229 67.7495 79.7234C67.1749 78.462 67.1305 77.3193 67.6658 76.6898C69.4006 74.6483 72.8255 75.7806 72.8255 75.7806C73.0159 76.7623 73.7223 77.4204 74.5974 77.7407C76.5793 78.4677 79.4281 77.4577 79.1416 74.5159C79.1416 74.5159 80.8656 68.3458 80.2448 64.7725C80.2538 64.79 80.2624 64.808 80.2715 64.8255C81.7837 67.8982 79.5597 75.8602 79.5597 75.8602Z" fill="#E8E8E8"/>
</g>
<g opacity="0.6">
<path d="M96.8722 52.1441C96.6695 51.8877 96.422 51.8081 96.1944 51.9795C96.0202 52.1104 95.8138 52.227 95.5804 52.3263C94.0895 52.9719 91.5629 52.9436 90.1005 51.7586C88.4104 50.3878 82.1386 47.4245 78.6907 51.7586C77.0075 53.8743 76.9844 56.3082 77.5785 58.6008C76.6215 55.942 76.255 52.9508 78.2726 50.414C81.7205 46.0799 87.9923 49.0431 89.6824 50.414C91.1448 51.599 93.6714 51.6273 95.1623 50.9817C95.3954 50.8827 95.6017 50.7658 95.7763 50.6349C96.2496 50.2777 96.8116 51.0083 96.8722 52.1438V52.1441Z" fill="#E8E8E8"/>
</g>
<g opacity="0.3">
<path d="M77.4637 85.5757C69.7937 85.2855 66.0341 78.6097 67.6657 76.6902C69.4005 74.6486 72.8253 75.7809 72.8253 75.7809C73.0158 76.7626 73.7221 77.4208 74.5973 77.741L74.6348 77.8031C74.6348 77.8031 75.713 83.2214 80.9849 80.7768C84.5078 79.1441 81.0722 83.1031 77.4637 85.5761V85.5757Z" fill="#03302D"/>
</g>
<g opacity="0.3">
<path d="M89.6835 58.1533C89.6835 58.1533 92.4893 61.9989 91.888 67.2192C89.4238 68.868 87.2745 69.5721 87.9044 66.3771C89.2387 59.6091 84.8193 57.021 84.8193 57.021C91.1265 56.8937 95.7508 55.6552 95.1635 50.9818C95.3965 50.8828 95.6029 50.7659 95.7775 50.635C97.0675 49.6619 99.0245 56.7821 89.6839 58.1529L89.6835 58.1533Z" fill="#03302D"/>
</g>
<path d="M77.9994 86.2365C72.7095 86.2365 68.8471 83.3313 67.2995 80.2942C66.4655 78.6579 66.4157 77.1537 67.1664 76.2707C69.1635 73.9207 72.8744 75.1122 73.0313 75.1638C73.2557 75.2381 73.422 75.4267 73.4671 75.6574C73.7185 76.9496 75.1499 77.4604 76.3685 77.285C77.5055 77.1214 78.6606 76.3248 78.4907 74.5792C78.4831 74.4999 78.4903 74.4196 78.5116 74.3428C79.1115 72.1937 80.416 66.1047 79.2659 63.768C79.1209 63.4732 78.9571 63.1543 78.7829 62.8147C77.1387 59.6121 74.3869 54.2523 77.7609 50.0114C78.9048 48.5735 80.4214 47.7432 82.2684 47.5427C85.4248 47.2009 88.744 48.8138 90.0967 49.911C91.5754 51.1104 94.3527 50.8944 95.3819 50.1179C95.7491 49.841 96.2192 49.8224 96.6099 50.0688C97.3743 50.5512 97.7249 51.9708 97.4255 53.3707C97.1557 54.6321 95.9667 57.5581 90.7479 58.6273C91.7063 60.3259 93.483 64.3723 92.1558 69.2821C92.0869 69.5375 92.0169 69.7989 91.9455 70.0654C90.2897 76.252 87.7873 85.6013 79.008 86.2021C78.6667 86.2254 78.3302 86.2369 77.9997 86.2369L77.9994 86.2365ZM70.7258 76.1182C69.837 76.1182 68.8294 76.3277 68.1646 77.1096C67.8464 77.484 67.8161 78.4323 68.4654 79.7067C69.9152 82.5512 73.7109 85.262 78.9178 84.9052C86.7639 84.3679 89.0286 75.9081 90.6818 69.7308C90.7533 69.4632 90.8236 69.2007 90.8929 68.9446C92.4513 63.1783 89.1862 58.5803 89.153 58.5344C89.0196 58.3504 88.9921 58.1101 89.0809 57.901C89.1696 57.6919 89.3615 57.5437 89.587 57.5107C94.5129 56.7877 95.7917 54.5195 96.1153 53.2315C96.3516 52.2918 96.1629 51.5598 95.9959 51.2761C94.3744 52.333 91.1255 52.4234 89.2692 50.9181C88.266 50.1043 85.269 48.5255 82.409 48.835C80.9228 48.996 79.7035 49.6635 78.7851 50.8177C75.932 54.4043 78.3478 59.11 79.9463 62.2239C80.1241 62.5704 80.2915 62.8961 80.4394 63.1966C81.9581 66.2826 80.0826 73.5373 79.8016 74.5767C79.9769 76.9869 78.3107 78.319 76.555 78.5715C74.8602 78.8154 72.8762 78.0959 72.2878 76.3087C71.9426 76.2269 71.3643 76.1186 70.7247 76.1186L70.7258 76.1182Z" fill="#03302D"/>
<path d="M89.7163 58.8021C88.299 58.8369 86.8524 58.2881 85.6396 57.6816C84.3428 57.022 83.3255 57.329 82.1967 58.1877C82.0222 58.3179 81.8068 58.0629 81.9702 57.9151C82.4705 57.4546 83.0254 57.0001 83.7476 56.777C84.4524 56.5464 85.2576 56.6849 85.9333 56.9083C86.9051 57.2282 87.7499 57.522 88.7322 57.5446C89.0403 57.5521 89.3487 57.5356 89.6557 57.5033C90.5673 57.4424 90.6337 58.7773 89.716 58.8021H89.7163Z" fill="#03302D"/>
<path d="M72.7993 52.8342C71.479 59.6359 69.6396 65.6094 71.0522 70.2548C71.1998 70.7502 71.3866 71.2315 71.6161 71.6949L70.084 71.5622L61.8642 70.8492L28.8495 67.9834C28.6716 64.7214 27.3852 61.4894 25.0206 58.2912C23.8143 56.6568 22.7469 54.923 21.9283 53.0658C14.0253 35.1179 24.026 20.4428 39.9995 15.8896C46.4596 14.2605 52.8952 15.074 58.3748 17.9149C66.2032 21.9711 72.0886 30.1633 73.3306 41.2794C73.7614 45.1322 73.5388 49.0273 72.7986 52.8342H72.7993Z" fill="#8FCDBC"/>
<g opacity="0.3">
<path d="M72.799 52.8341C71.4787 59.6358 69.6393 65.6094 71.052 70.2548C70.7406 70.6866 70.4044 71.1374 70.0841 71.5621C69.2638 72.6464 68.5416 73.5574 68.5416 73.5574L62.2647 71.7884L61.8643 70.8491L58.1992 62.2433C72.1533 58.6011 73.4487 28.5091 58.3699 17.9131L58.3753 17.9149C66.2036 21.971 72.0891 30.1633 73.3311 41.2794C73.7618 45.1321 73.5392 49.0272 72.799 52.8341Z" fill="#03302D"/>
</g>
<g opacity="0.4">
<path d="M58.4157 17.5771C53.3185 15.3871 47.5236 14.8742 41.7074 16.3422C36.9143 17.7077 32.6583 19.9863 29.2637 22.9901C29.0982 25.4172 27.6819 27.0161 25.015 27.784C20.382 34.5627 19.2395 43.5347 23.6362 53.5189C24.4529 55.3746 25.5222 57.1098 26.7285 58.7425C28.9669 61.7746 30.2388 64.8329 30.5198 67.92L29.2049 67.8066C29.0271 64.5446 27.7407 61.3126 25.3761 58.1144C24.1698 56.48 23.1023 54.7462 22.2838 52.8891C14.3808 34.9411 24.3815 20.266 40.355 15.7128C46.6924 14.1135 53.005 14.8656 58.4153 17.5771H58.4157Z" fill="#E8E8E8"/>
</g>
<path d="M38.1203 95.2467C38.0937 95.2926 38.0652 95.3385 38.0349 95.383C33.5354 102.591 17.8429 100.656 12.1797 94.6384C11.7738 94.2088 11.324 93.821 10.8276 93.4993C7.55392 91.3836 4.48476 92.9581 4.00462 96.8887C3.94041 97.4159 3.42095 97.7061 2.97255 97.5662C2.85495 97.5307 2.74132 97.4654 2.64356 97.3682C-0.0677525 94.6707 -1.18712 85.6966 7.18922 82.2738C9.31 81.4069 11.6285 81.078 13.9004 81.3965C17.2185 81.8635 19.6473 83.7261 21.6148 86.2665L34.0851 93.0521L37.5136 94.9164C37.5136 94.9164 37.5136 94.9182 37.5154 94.9182L38.1203 95.2471V95.2467Z" fill="#8FCDBC"/>
<g opacity="0.3">
<path d="M38.0357 95.3828C33.5362 102.591 17.8438 100.656 12.1805 94.6382C11.7747 94.2085 11.3249 93.8208 10.8285 93.4991C7.55479 91.3833 4.48563 92.9578 4.00549 96.8884C3.94127 97.4157 3.42181 97.7058 2.97341 97.566C2.22091 92.4944 4.66528 90.4705 7.17421 89.694C9.46742 88.9864 11.9497 89.609 13.7447 91.1921C19.2744 96.0675 25.1227 96.7554 31.1932 94.5496L34.0864 93.0515L34.7216 92.7226C35.1094 93.002 36.3958 93.9467 37.5148 94.9162C37.5148 94.9162 37.5148 94.9179 37.5166 94.9179C37.6945 95.0736 37.8709 95.2293 38.0361 95.3831L38.0357 95.3828Z" fill="#03302D"/>
</g>
<g opacity="0.6">
<path d="M38.1203 95.2465C38.0261 95.4039 37.9262 95.5578 37.8194 95.7081L22.4152 87.3268C20.4473 84.7867 18.0188 82.9238 14.7008 82.4568C12.4289 82.1384 10.1104 82.4676 7.98961 83.3341C0.508262 86.391 0.602415 93.8771 2.6395 97.3637C-0.0703617 94.6626 -1.18396 85.6938 7.18877 82.2729C9.30955 81.406 11.628 81.0771 13.8999 81.3956C17.218 81.8625 19.6469 83.7251 21.6143 86.2655L38.1199 95.2465H38.1203Z" fill="#E8E8E8"/>
</g>
<path d="M27.0868 100.67C21.1696 100.67 14.8711 98.4474 11.7027 95.0817C11.3192 94.6739 10.9044 94.325 10.4701 94.0438C9.13173 93.1779 7.80782 92.9735 6.74112 93.4685C5.62319 93.9871 4.8624 95.2618 4.65389 96.9662C4.58535 97.5264 4.21054 97.9884 3.67665 98.1713C3.14853 98.352 2.57532 98.2197 2.18031 97.8262C0.662685 96.3155 -0.498892 92.9323 0.216451 89.389C0.921694 85.8956 3.31014 83.1543 6.94133 81.6706C9.21579 80.7409 11.6537 80.4231 13.9912 80.752C17.1459 81.1953 19.8089 82.8692 22.1324 85.8687C22.3524 86.1528 22.2994 86.5609 22.0133 86.7801C21.7276 86.9989 21.3167 86.9458 21.0967 86.6617C18.9626 83.9072 16.647 82.4381 13.808 82.0389C11.7009 81.7423 9.49788 82.031 7.43807 82.8724C3.3188 84.5557 1.93429 87.4841 1.49815 89.6447C0.879849 92.7074 1.86466 95.6725 3.10524 96.9077C3.12075 96.9231 3.16909 96.9701 3.25098 96.9425C3.29355 96.9278 3.34622 96.893 3.35632 96.8091C3.62038 94.6495 4.65281 93.0026 6.18883 92.2903C7.6794 91.5987 9.45315 91.8347 11.1836 92.9541C11.7063 93.2924 12.2023 93.7091 12.6579 94.1933C16.002 97.7459 23.1691 99.9212 29.3277 99.2519C33.2211 98.8291 36.1442 97.289 37.5586 94.9153C37.7426 94.6065 38.1441 94.5046 38.454 94.6872C38.7646 94.8701 38.867 95.269 38.6834 95.5774C37.0543 98.3119 33.7821 100.076 29.4694 100.544C28.6881 100.628 27.8912 100.67 27.0871 100.67L27.0868 100.67Z" fill="#03302D"/>
<path d="M71.6158 72.344C71.3741 72.344 71.1418 72.2099 71.0281 71.9796C68.9622 67.7847 70.0812 62.5467 71.377 56.4814C71.6382 55.2597 71.908 53.9969 72.1576 52.7111C72.913 48.8221 73.0894 44.9998 72.6814 41.3507C71.6634 32.2425 67.428 24.6951 60.7554 20.0999C54.7437 15.9594 47.433 14.6873 40.1699 16.5172C31.8246 18.898 25.209 24.1334 22.0179 30.882C18.9203 37.4334 19.0963 45.0141 22.5273 52.805C23.27 54.4911 24.2577 56.1596 25.5477 57.906C27.9881 61.2093 29.3185 64.5879 29.5021 67.9475C29.522 68.3062 29.2457 68.6125 28.8849 68.6318C28.5292 68.6526 28.2161 68.3768 28.197 68.0182C28.0271 64.9154 26.7815 61.7717 24.494 58.6757C23.1463 56.8515 22.1113 55.1016 21.33 53.3265C17.7432 45.182 17.5722 37.2297 20.8351 30.3293C24.1877 23.2389 31.1074 17.7481 39.8193 15.2651C39.8257 15.2633 39.8322 15.2615 39.8387 15.2597C47.4774 13.3322 55.1701 14.6718 61.5 19.0314C68.4878 23.844 72.9202 31.7195 73.9808 41.2069C74.4032 44.9862 74.2218 48.9397 73.4415 52.9571C73.1893 54.2548 72.9184 55.5237 72.6562 56.7511C71.4105 62.5808 70.3352 67.6157 72.2027 71.4075C72.3614 71.73 72.2272 72.1191 71.9029 72.2769C71.8106 72.3218 71.7125 72.3433 71.6161 72.3433L71.6158 72.344Z" fill="#03302D"/>
<path d="M76.0153 102.072C72.6688 108.68 61.0238 109.149 56.1899 102.922C53.3592 104.661 44.8652 102.922 44.8652 97.177C44.8652 97.177 47.7511 97.8509 50.0801 94.2775C50.0837 94.2739 50.0837 94.2721 50.0837 94.2721C52.4108 90.697 54.037 85.9935 58.293 86.0483C62.5504 86.1032 64.4331 90.0091 64.4331 90.0091C66.5503 96.1121 67.8507 101.589 72.9768 101.311C73.6067 101.277 74.2917 101.157 75.046 100.939C75.7275 100.743 76.336 101.44 76.0157 102.071L76.0153 102.072Z" fill="#8FCDBC"/>
<g opacity="0.6">
<path d="M64.7298 92.2055C61.7855 85.0662 56.1897 86.615 51.4658 91.2407C54.7666 86.2656 62.3143 83.0244 64.7298 92.2055Z" fill="#E8E8E8"/>
</g>
<path d="M66.0138 107.975C62.0288 107.975 58.3323 106.422 56.0171 103.741C53.9428 104.627 50.4498 104.266 47.8629 102.832C45.5088 101.527 44.2119 99.5185 44.2119 97.1775C44.2119 96.8188 44.5048 96.5276 44.8656 96.5276C45.2263 96.5276 45.5192 96.8188 45.5192 97.1775C45.5192 99.5468 47.14 100.943 48.4996 101.697C51.1143 103.147 54.4695 103.215 55.8461 102.37C56.1311 102.195 56.5026 102.262 56.7068 102.526C58.9813 105.455 63.0619 107.021 67.3561 106.611C71.0591 106.258 74.0778 104.452 75.4313 101.778C75.4417 101.758 75.4738 101.695 75.4118 101.621C75.3844 101.588 75.3238 101.536 75.2264 101.564C72.093 102.467 69.7074 101.862 67.9333 99.7157C66.3959 97.8557 65.4251 94.9789 64.3981 91.9334C64.2083 91.3714 64.0154 90.799 63.8151 90.2212C63.6975 89.8819 63.8786 89.5121 64.2203 89.3952C64.5611 89.2779 64.9334 89.4583 65.051 89.798C65.2527 90.3794 65.4468 90.955 65.6376 91.5203C67.8864 98.1864 69.4221 101.882 74.8631 100.316C75.4298 100.152 76.0406 100.339 76.4179 100.79C76.7934 101.24 76.863 101.842 76.5993 102.363C75.0428 105.438 71.6338 107.51 67.481 107.905C66.9889 107.952 66.4987 107.975 66.0135 107.975H66.0138Z" fill="#03302D"/>
<path d="M55.586 103.172L54.424 99.1577C54.3645 98.9587 54.6531 98.8392 54.7527 99.0221L56.7934 102.673C56.9698 102.989 56.8554 103.387 56.538 103.563C56.1758 103.769 55.6971 103.571 55.5863 103.172H55.586Z" fill="#03302D"/>
<g opacity="0.3">
<path d="M76.0153 102.071C72.6688 108.68 61.0238 109.149 56.1899 102.922C53.3592 104.661 44.8652 102.922 44.8652 97.1768C44.8652 97.1768 47.7511 97.8507 50.0801 94.2773C50.0213 94.4402 48.4041 98.8962 53.8768 97.9691C53.8768 97.9691 54.9443 95.9419 55.9532 98.666C56.9604 101.39 67.5196 107.366 72.9747 101.312L72.9765 101.31C73.6063 101.277 74.2914 101.157 75.0457 100.939C75.7271 100.742 76.3357 101.44 76.0153 102.071V102.071Z" fill="#03302D"/>
</g>
<path d="M64.4328 90.009C61.5898 83.7485 53.7578 84.8205 50.4073 93.4884C48.7634 98.429 42.312 97.6453 38.5758 95.5528C33.5709 93.0924 30.628 88.8168 29.6317 83.9769C29.0819 81.3006 29.1263 78.4506 29.7439 75.6398C30.2936 73.1474 31.2954 70.6848 32.7347 68.3994C34.5565 64.4688 40.6432 61.2724 45.3029 64.2777C45.4453 64.3695 45.5875 64.4616 45.735 64.5467C45.7617 64.5606 45.7884 64.5768 45.8151 64.5908C48.1938 65.9139 51.1223 65.8113 53.4335 64.3766C54.4923 63.7203 55.4814 63.1827 56.3674 62.8272C62.7723 60.0551 66.6867 65.7159 67.8129 70.3735L69.4142 77.3908C71.3626 83.0107 69.1776 90.1858 64.4324 90.009H64.4328Z" fill="#F59665"/>
<g opacity="0.3">
<path d="M64.433 90.009C61.5901 83.7485 53.7581 84.8206 50.4075 93.4884C48.7636 98.429 42.3122 97.6454 38.576 95.5529C33.7155 93.1631 30.7992 89.0607 29.7246 84.3941C31.1943 87.8154 33.8078 90.7342 37.6136 92.6058C41.3498 94.6986 47.8012 95.4823 49.4451 90.5413C52.2055 83.3996 58.0083 81.4144 61.5565 84.4382C63.9716 86.4966 67.7558 85.3869 68.6598 82.3544C69.3701 79.9718 69.3528 77.0415 68.4524 74.4437L66.9456 67.835C67.3229 68.6771 67.6129 69.5404 67.8139 70.3736L69.4152 77.3909C71.3635 83.0108 69.1785 90.1859 64.4334 90.009H64.433Z" fill="#03302D"/>
</g>
<g opacity="0.3">
<path d="M30.0036 84.0577C29.8773 84.0311 29.7529 84.0046 29.6317 83.9763C29.0819 81.2999 29.1263 78.45 29.7439 75.6391C30.3095 75.4569 30.6656 75.3561 30.6656 75.3561L46.2033 72.1436C46.2033 72.1436 47.2281 87.7157 30.0036 84.0577Z" fill="#03302D"/>
</g>
<g opacity="0.6">
<path d="M67.0115 67.9863C65.1363 64.5563 61.7328 61.8868 56.9252 63.9653C56.0392 64.3225 55.0501 64.8587 53.9913 65.5151C51.6783 66.9497 48.7498 67.0541 46.3729 65.7292C46.3462 65.7152 46.3195 65.7008 46.2928 65.6851C46.1453 65.6019 46.0028 65.5082 45.8607 65.4161C41.201 62.4123 35.1143 65.609 33.2907 69.5378C29.4958 75.5666 28.7465 82.8264 31.3034 88.6195C28.1044 82.6617 28.6863 74.8289 32.7356 68.3984C34.5573 64.4678 40.644 61.2713 45.3037 64.2766C45.4462 64.3684 45.5883 64.4606 45.7358 64.5456C45.7625 64.5596 45.7892 64.5757 45.8159 64.5897C48.1946 65.9128 51.1231 65.8102 53.4344 64.3756C54.4931 63.7192 55.4823 63.1816 56.3682 62.8262C61.6971 60.5196 65.3034 64.0521 67.0115 67.9863Z" fill="#E8E8E8"/>
</g>
<path d="M43.1859 87.0772L41.1105 87.8032C40.9111 87.8728 40.6928 87.7687 40.6228 87.5704L37.0198 77.3858C36.9498 77.1874 37.0544 76.9704 37.2539 76.9009L39.3292 76.1749C39.5287 76.1053 39.747 76.2094 39.8169 76.4077L43.42 86.5923C43.49 86.7907 43.3854 87.0077 43.1859 87.0772Z" fill="#03302D"/>
<path d="M44.6281 97.831C42.3674 97.831 40.0056 97.0961 38.2701 96.1277C33.7743 93.9122 30.6795 90.219 29.3195 85.4466C27.7207 79.8368 28.7557 73.5121 32.1582 68.0884C33.2851 65.6946 35.8254 63.6284 38.6421 62.8181C41.1384 62.0997 43.6307 62.424 45.6584 63.7317L45.6988 63.7578C45.8233 63.8382 45.9409 63.9142 46.0574 63.9799L46.1346 64.0233C48.2914 65.2241 50.9559 65.1477 53.0882 63.8249C54.2591 63.0983 55.2515 62.5746 56.1223 62.2242C58.5079 61.1916 60.7596 61.1769 62.7989 62.1869C65.9038 63.7249 67.7536 67.3459 68.4495 70.2221L70.045 77.2131C71.3697 81.0691 70.8773 85.6575 68.8434 88.3841C67.6847 89.9375 66.1505 90.7229 64.4089 90.6591C64.161 90.6498 63.9399 90.502 63.8378 90.2771C62.7931 87.9774 60.9826 86.6704 58.8546 86.6704C58.8052 86.6704 58.7554 86.6711 58.7052 86.6726C55.6137 86.7608 52.6708 89.4561 51.0233 93.7081C50.445 95.4329 49.2586 96.6829 47.5912 97.3245C46.671 97.6785 45.6602 97.8317 44.6285 97.8317L44.6281 97.831ZM41.2531 63.7385C40.4111 63.7385 39.6417 63.8834 39.0057 64.0667C36.5224 64.7811 34.2937 66.5884 33.328 68.6708C33.3165 68.6959 33.3031 68.7203 33.2883 68.7436C30.1117 73.789 29.0984 79.9006 30.5778 85.0926C31.8357 89.5074 34.7017 92.923 38.8661 94.9706C38.8765 94.9756 38.887 94.981 38.8971 94.9868C41.0835 96.2112 44.5885 97.0853 47.1198 96.1119C48.4339 95.6065 49.3311 94.655 49.7874 93.2845C49.7907 93.2749 49.7943 93.2652 49.7979 93.2555C51.6373 88.4971 55.0362 85.4768 58.6681 85.3731C61.2502 85.2996 63.5287 86.7802 64.8428 89.355C66.2623 89.2639 67.2233 88.3744 67.7937 87.6094C69.5631 85.2375 69.9851 81.029 68.7976 77.6027C68.79 77.5804 68.7832 77.5578 68.7781 77.5349L67.1768 70.518C66.552 67.9349 64.9193 64.6893 62.2166 63.3504C60.5392 62.5197 58.6594 62.5438 56.6292 63.4225C55.8139 63.751 54.8872 64.2413 53.7808 64.9278C51.2437 66.502 48.0699 66.5895 45.4972 65.1577L45.4117 65.1097C45.263 65.0261 45.1227 64.9353 44.9874 64.8478L44.9478 64.8224C43.6866 64.0093 42.4028 63.7388 41.2538 63.7388L41.2531 63.7385Z" fill="#03302D"/>
<path d="M55.1945 82.4156C57.3962 80.2267 57.3962 76.6776 55.1945 74.4887C52.9929 72.2997 49.4234 72.2997 47.2217 74.4887C45.0201 76.6776 45.0201 80.2267 47.2217 82.4156C49.4234 84.6046 52.9929 84.6046 55.1945 82.4156Z" fill="#03302D"/>
<path d="M60.8154 72.3195L91.2989 65.0078L92.485 70.4914L62.6541 79.637L60.8154 72.3195Z" fill="#F59665"/>
<g opacity="0.6">
<path d="M61.1715 73.336L62.7457 79.6087L62.6534 79.637L60.8154 72.3188L91.2982 65.0078L91.5243 66.0551L61.1715 73.336Z" fill="#E8E8E8"/>
</g>
<g opacity="0.3">
<path d="M92.4858 70.4914L62.6542 79.637L62.2646 78.084L91.9379 68.9861L91.0891 65.0573L91.299 65.0078L92.4858 70.4914Z" fill="#03302D"/>
</g>
<path d="M62.6541 80.2873C62.5426 80.2873 62.4319 80.259 62.333 80.2034C62.1768 80.1159 62.0635 79.9681 62.0199 79.7949L60.1816 72.4774C60.1394 72.3092 60.1664 72.1317 60.2566 71.9832C60.3468 71.8351 60.4929 71.7289 60.6624 71.6884L91.1459 64.3766C91.3169 64.3354 91.498 64.3648 91.647 64.458C91.7963 64.5513 91.9013 64.7005 91.9381 64.8716L93.1242 70.3556C93.1952 70.6848 93.0015 71.0137 92.6776 71.1131L62.8463 80.2583C62.7836 80.2777 62.7183 80.2873 62.6537 80.2873H62.6541ZM61.6097 72.7981L63.1212 78.814L91.7206 70.0464L90.8014 65.7962L61.6101 72.7977L61.6097 72.7981Z" fill="#03302D"/>
<path d="M65.6243 79.2074C65.4251 79.2074 65.244 79.0736 65.1932 78.8728L63.4032 71.8014C63.3433 71.5646 63.4876 71.3243 63.7261 71.2644C63.9634 71.2049 64.2062 71.3484 64.2661 71.5854L66.0561 78.6569C66.1159 78.8936 65.9716 79.1339 65.7332 79.1938C65.6968 79.2028 65.6603 79.2074 65.6243 79.2074Z" fill="#03302D"/>
<path d="M68.3319 77.8801C68.1346 77.8801 67.9542 77.7484 67.9019 77.5497L66.1581 70.9291C66.0961 70.6928 66.2382 70.451 66.4756 70.3893C66.714 70.328 66.9564 70.469 67.0185 70.705L68.7623 77.3256C68.8243 77.5619 68.6822 77.8037 68.4448 77.8653C68.4069 77.875 68.3691 77.8801 68.3319 77.8801Z" fill="#03302D"/>
<path d="M71.6143 77.3968C71.4188 77.3968 71.2399 77.2681 71.1858 77.0715L69.3197 70.3168C69.2547 70.0812 69.394 69.838 69.6306 69.7731C69.868 69.7074 70.1122 69.8469 70.1775 70.0822L72.0436 76.837C72.1085 77.0726 71.9693 77.3158 71.7326 77.3807C71.6933 77.3915 71.6536 77.3965 71.6147 77.3965L71.6143 77.3968Z" fill="#03302D"/>
<path d="M75.2349 76.2223C75.0408 76.2223 74.8626 76.0954 74.807 75.9006L73.0199 69.6215C72.9528 69.3866 73.0903 69.142 73.3269 69.0756C73.5643 69.0085 73.8092 69.1459 73.876 69.3808L75.6631 75.66C75.7302 75.8949 75.5927 76.1395 75.3561 76.2058C75.3157 76.2173 75.2745 76.2227 75.2349 76.2227V76.2223Z" fill="#03302D"/>
<path d="M79.5862 74.5704C79.3906 74.5704 79.2117 74.4416 79.1576 74.2455L77.5181 68.3286C77.4528 68.0929 77.592 67.8498 77.8286 67.7848C78.066 67.7192 78.3102 67.858 78.3759 68.0936L80.0154 74.0105C80.0807 74.2462 79.9415 74.4894 79.7048 74.5543C79.6652 74.565 79.6255 74.5704 79.5865 74.5704H79.5862Z" fill="#03302D"/>
<path d="M83.4351 73.0829C83.2396 73.0829 83.06 72.9534 83.0062 72.7565L82.0734 69.3431C82.0088 69.1075 82.1488 68.8646 82.3861 68.8004C82.6217 68.7373 82.8673 68.8754 82.9319 69.1114L83.8648 72.5248C83.9294 72.7605 83.7894 73.0033 83.552 73.0675C83.5131 73.0779 83.4737 73.0829 83.4351 73.0829Z" fill="#03302D"/>
<path d="M91.2988 65.0084L92.4849 70.492C92.4849 70.492 92.4554 72.2541 94.8572 72.6408C97.2589 73.0274 98.6824 70.3148 99.8094 70.374C100.936 70.4328 104.91 72.1429 105.295 67.8088C105.681 63.4747 103.783 59.2292 100.818 60.9985C97.8524 62.7678 97.7633 62.3546 95.9841 62.0892C94.2049 61.8238 91.4175 62.148 91.2988 65.008V65.0084Z" fill="#F59665"/>
<path d="M102.276 64.5413C102.435 63.8726 102.018 63.2024 101.346 63.0446C100.673 62.8868 99.999 63.3009 99.8402 63.9697C99.6814 64.6385 100.098 65.3086 100.771 65.4665C101.443 65.6243 102.117 65.2101 102.276 64.5413Z" fill="#03302D"/>
<path d="M103.527 67.8704C103.686 67.2017 103.269 66.5316 102.597 66.3737C101.924 66.2159 101.25 66.6301 101.091 67.2988C100.932 67.9676 101.349 68.6377 102.022 68.7956C102.694 68.9534 103.368 68.5392 103.527 67.8704Z" fill="#03302D"/>
<g opacity="0.6">
<path d="M105.341 66.3767C104.939 63.1677 103.258 60.7887 100.905 62.1915C97.9412 63.9604 97.8525 63.5483 96.0729 63.2829C94.4078 63.0354 91.8617 63.3022 91.4436 65.6798L91.2979 65.0077C91.4169 62.1473 94.205 61.8235 95.9842 62.0889C97.7634 62.3543 97.8525 62.7664 100.817 60.9975C103.453 59.4247 105.247 62.6054 105.341 66.3767Z" fill="#E8E8E8"/>
</g>
<g opacity="0.3">
<path d="M105.295 67.8083C104.91 72.1424 100.936 70.4334 99.8101 70.3731C98.6821 70.3147 97.2586 73.0265 94.8568 72.641C92.455 72.2536 92.4853 70.4918 92.4853 70.4918L92.4355 70.2601C92.7862 70.589 93.3233 70.8828 94.1455 71.0155C96.5472 71.4028 97.9707 68.691 99.0987 68.7495C100.225 68.8079 104.198 70.5184 104.584 66.1846C104.719 64.6739 104.575 63.174 104.207 61.9355C105.077 63.3064 105.497 65.5459 105.295 67.8087V67.8083Z" fill="#03302D"/>
</g>
<path d="M95.3284 73.3292C95.1426 73.3292 94.9511 73.3145 94.753 73.2825C92.4901 72.9181 91.8599 71.3927 91.8325 70.5649L90.6601 65.1448C90.6485 65.0914 90.6439 65.0361 90.646 64.9812C90.6933 63.8428 91.1081 62.9447 91.879 62.3117C93.2668 61.1719 95.2801 61.3272 96.0813 61.4462C96.3522 61.4868 96.5845 61.5302 96.789 61.5686C97.8431 61.7655 98.1609 61.825 100.481 60.4409C101.843 59.6278 102.907 59.942 103.559 60.3477C105.264 61.4089 106.246 64.5006 105.946 67.866C105.826 69.2199 105.362 70.2034 104.568 70.7884C103.286 71.7335 101.576 71.3769 100.445 71.1406C100.171 71.0836 99.9123 71.0294 99.7752 71.0222C99.7731 71.0222 99.7709 71.0222 99.7687 71.0222C99.5768 71.0222 99.0635 71.4472 98.7222 71.7295C97.8925 72.4164 96.7905 73.3284 95.328 73.3284L95.3284 73.3292ZM91.9566 64.9558L93.1247 70.3558C93.1351 70.4043 93.1398 70.4537 93.1391 70.5032C93.1412 70.6173 93.2105 71.7177 94.9622 71.9996C96.1289 72.1872 97.0621 71.4135 97.8864 70.7314C98.5624 70.1718 99.1414 69.6912 99.8441 69.7253C100.082 69.7379 100.375 69.7988 100.714 69.8695C101.616 70.0578 102.98 70.3422 103.79 69.745C104.271 69.3907 104.559 68.7203 104.645 67.7519C104.894 64.9457 104.13 62.2364 102.866 61.4498C102.361 61.1356 101.801 61.1704 101.154 61.556C98.5411 63.1155 97.9297 63.1047 96.5477 62.8465C96.345 62.8085 96.1347 62.7694 95.8879 62.7324C95.3977 62.6593 93.7213 62.4853 92.712 63.3145C92.2495 63.6944 92.002 64.232 91.9569 64.9561L91.9566 64.9558Z" fill="#03302D"/>
<path d="M94.7231 66.3439C95.4142 66.3439 95.9745 65.7868 95.9745 65.0997C95.9745 64.4125 95.4142 63.8555 94.7231 63.8555C94.0319 63.8555 93.4717 64.4125 93.4717 65.0997C93.4717 65.7868 94.0319 66.3439 94.7231 66.3439Z" fill="#03302D"/>
<path d="M96.431 70.203C96.9197 69.7171 96.9197 68.9293 96.431 68.4435C95.9423 67.9576 95.1499 67.9576 94.6612 68.4435C94.1725 68.9293 94.1725 69.7171 94.6612 70.203C95.1499 70.6889 95.9423 70.6889 96.431 70.203Z" fill="#03302D"/>
<path d="M46.2209 71.6792C46.2191 71.8366 46.2119 71.9923 46.2033 72.1443C45.7282 79.544 36.5921 83.1722 30.4502 79.1017C30.3221 81.6916 31.0036 84.5907 32.1655 87.2707C32.87 88.8911 33.7473 90.4301 34.7311 91.7744C35.9071 93.3823 37.231 94.709 38.5758 95.5529C30.8398 95.9704 21.1399 92.2504 18.768 78.9249C18.631 78.265 18.5599 77.6072 18.5509 76.9598C18.4405 69.2965 26.9077 62.9762 34.7451 68.458C35.3108 68.8543 35.8216 69.3213 36.3107 69.8076C38.8139 72.3 42.3509 73.0819 45.2902 71.1645C45.6924 70.9009 46.2278 71.2 46.2206 71.6792H46.2209Z" fill="#8FCDBC"/>
<g opacity="0.6">
<path d="M46.2211 71.6785C46.2156 72.0289 46.1926 72.3718 46.1482 72.7064C45.9758 72.6322 45.7676 72.6376 45.5858 72.7559C42.6483 74.6734 39.1113 73.8915 36.6081 71.3991C36.1189 70.9128 35.6081 70.4458 35.0407 70.0495C26.7711 64.2631 17.7985 71.6222 18.946 79.8335C18.8818 79.5361 18.8234 79.232 18.7682 78.9242C17.0049 70.4476 26.2463 62.5118 34.7453 68.4573C35.3109 68.8537 35.8217 69.3206 36.3109 69.807C38.814 72.2994 42.3511 73.0812 45.2904 71.1638C45.6926 70.9002 46.2279 71.1993 46.2207 71.6785H46.2211Z" fill="#E8E8E8"/>
</g>
<path d="M37.4261 96.2331C33.3228 96.2331 29.4062 95.0768 26.2876 92.9262C21.9848 89.959 19.2385 85.2892 18.1256 79.0463C17.2053 74.5999 19.1602 69.9348 22.9916 67.4349C26.6935 65.0193 31.2279 65.2029 35.1207 67.9259C35.643 68.2914 36.1527 68.73 36.7743 69.3484C39.2064 71.769 42.4083 72.2682 44.9309 70.6198C45.3184 70.367 45.8119 70.348 46.2199 70.5703C46.6307 70.7945 46.8818 71.2227 46.875 71.6879C46.8227 75.253 44.8213 78.4118 41.5205 80.1373C38.2479 81.8482 34.2769 81.8579 31.0963 80.2302C31.2972 86.0736 35.2173 92.6791 38.9243 95.0018C39.1649 95.1528 39.28 95.4412 39.2086 95.7149C39.1371 95.9889 38.8954 96.1854 38.6112 96.2005C38.2151 96.222 37.8194 96.2324 37.4261 96.2324V96.2331ZM28.583 67.0278C26.8951 67.0278 25.2372 67.5242 23.7084 68.5216C20.3189 70.7335 18.5902 74.8607 19.4076 78.7927C19.4087 78.7988 19.4102 78.8049 19.4112 78.811C21.8488 92.5044 31.6637 94.7063 36.6632 94.9129C35.0078 93.433 33.4346 91.3166 32.1936 88.8633C30.5014 85.5177 29.6504 82.0393 29.7983 79.0689C29.8099 78.8354 29.947 78.6259 30.1569 78.5205C30.3669 78.4154 30.6176 78.4305 30.8135 78.5599C33.7376 80.4982 37.7018 80.666 40.9123 78.9871C43.7975 77.4786 45.4894 74.8481 45.5662 71.7593C42.5158 73.6972 38.7122 73.1161 35.8494 70.2669C35.283 69.7034 34.8263 69.3093 34.3685 68.9886C32.5028 67.6834 30.5231 67.0274 28.583 67.0274V67.0278Z" fill="#03302D"/>
<path d="M30.0744 79.6322C28.208 78.0358 26.6351 75.9882 25.9526 73.6149C25.9249 73.5213 25.9786 73.4226 26.0728 73.395C26.1629 73.3685 26.2564 73.4165 26.2896 73.5012C26.5291 74.0324 26.7946 74.5474 27.1265 75.0233C28.0958 76.435 29.3948 77.6484 30.832 78.5727C31.5942 79.0831 30.8132 80.1813 30.0744 79.6325V79.6322Z" fill="#03302D"/>
<g opacity="0.3">
<path d="M46.2037 72.1445C45.7286 79.5441 36.5926 83.1723 30.4507 79.1019C30.3226 81.6918 31.004 84.5909 32.166 87.2708C26.3552 83.8832 26.3213 74.0799 26.3213 74.0799C31.6252 79.9085 43.6169 79.4559 45.6929 71.7891L46.2034 72.1445H46.2037Z" fill="#03302D"/>
</g>
<g opacity="0.3">
<path d="M38.5757 95.5522C30.8397 95.9696 21.1398 92.2496 18.7679 78.9241C18.6309 78.2642 18.5598 77.6064 18.5508 76.959L18.5598 76.9482C18.5598 76.9482 20.1218 88.9983 34.731 91.774C35.907 93.3819 37.2309 94.7086 38.5757 95.5525V95.5522Z" fill="#03302D"/>
</g>
<path d="M84.4196 94.7261C78.721 97.6274 67.3394 100.799 64.4697 90.1144C64.6335 90.104 64.7973 90.0861 64.9571 90.0595C67.8286 89.6191 70.1257 86.9707 70.1257 81.1636C71.5153 82.1205 72.8569 82.6761 74.1234 82.9078C83.6137 84.6538 89.0014 68.4945 78.2726 67.4544C86.1313 54.0686 104.405 83.4049 84.4193 94.7261H84.4196Z" fill="#8FCDBC"/>
<g opacity="0.6">
<path d="M75.1252 83.7482C74.1732 83.575 73.1786 83.2174 72.1523 82.6442V82.2303C72.8818 82.561 73.5917 82.7823 74.2803 82.9079C81.8418 84.2984 86.7096 74.1905 82.9485 69.501C88.1774 73.6687 83.1797 85.2306 75.1255 83.7482H75.1252Z" fill="#E8E8E8"/>
</g>
<g opacity="0.6">
<path d="M79.3798 67.4549C78.992 67.3613 78.7164 67.4976 78.2734 67.4549C81.1485 62.5584 85.2956 63.2004 88.5978 66.8C85.5928 64.0809 81.9916 63.6405 79.3798 67.4545V67.4549Z" fill="#E8E8E8"/>
</g>
<g opacity="0.3">
<path d="M84.4196 94.7269C78.721 97.6281 67.3394 100.8 64.4697 90.1152C64.6335 90.1048 64.7955 90.085 64.9571 90.0603C65.0015 90.0549 65.0462 90.0459 65.0906 90.0373C65.1349 90.0302 65.1797 90.0233 65.224 90.0126C65.2684 90.0036 65.3131 89.995 65.3575 89.9843C65.4448 89.9631 65.5317 89.9419 65.619 89.9172C65.6616 89.9046 65.7045 89.8924 65.7453 89.8781C65.7684 89.8709 65.7915 89.8641 65.8164 89.8569C68.2733 89.0467 70.1254 86.3793 70.1254 81.1643C71.5149 82.1212 72.8565 82.6768 74.1231 82.9085V82.9103C71.134 85.5533 69.2109 92.4045 77.4628 92.2912C79.7989 91.8012 82.007 90.991 83.7079 90.2038C91.6412 86.1139 93.5236 79.4112 92.4154 73.5771C94.6714 80.5309 93.5755 89.5402 84.4196 94.7269Z" fill="#03302D"/>
</g>
<path d="M74.0387 98.1886C72.4309 98.1886 70.8177 97.9318 69.3257 97.2718C66.6079 96.0703 64.7623 93.7193 63.8396 90.2836C63.7891 90.096 63.8258 89.8959 63.9395 89.7381C64.0531 89.5803 64.232 89.4809 64.4268 89.468C67.6342 89.2514 69.4732 86.225 69.4732 81.1653C69.4732 80.9236 69.6081 80.7019 69.8235 80.5896C70.0388 80.4774 70.2993 80.4932 70.4991 80.6312C73.6704 82.8155 76.9008 82.9852 79.5951 81.1097C82.5106 79.0797 84.1527 75.0608 83.3338 71.9598C82.9183 70.3864 81.6921 68.4399 78.2117 68.102C77.9899 68.0805 77.7947 67.9482 77.693 67.7509C77.5916 67.5536 77.5981 67.3187 77.7103 67.1275C79.3664 64.3059 81.6856 63.0061 84.2397 63.467C86.3337 63.845 88.47 65.3887 90.2553 67.8144C92.0139 70.2038 93.2787 73.2431 93.8162 76.3728C94.4648 80.1488 94.8789 89.5512 84.7443 95.2924C84.736 95.2974 84.7274 95.3017 84.7187 95.3064C83.1192 96.1205 78.6006 98.1897 74.0391 98.1897L74.0387 98.1886ZM65.3128 90.6577C66.1782 93.3093 67.7045 95.1331 69.8567 96.0843C73.9817 97.9074 79.9209 96.2844 84.1094 94.1554C93.5139 88.8203 93.1293 80.0958 92.5272 76.5912C91.5028 70.6267 87.7597 65.4235 84.0059 64.746C82.2538 64.4289 80.6684 65.1936 79.3758 66.9618C82.1037 67.5138 83.9413 69.1439 84.5979 71.6295C85.5466 75.2215 83.6783 79.8529 80.3448 82.1739C78.6313 83.3668 75.1978 84.8725 70.7499 82.327C70.4097 88.6234 67.2958 90.2596 65.3128 90.6581V90.6577Z" fill="#03302D"/>
<path d="M38.8243 45.3155C38.1476 44.2162 38.2317 42.74 38.7977 41.5919C40.4975 38.2089 44.8959 37.7595 47.0571 40.9814C47.4114 41.4843 47.6736 42.0481 47.8623 42.6284C47.8951 42.7224 47.845 42.8253 47.7505 42.858C47.679 42.8827 47.6054 42.8601 47.5564 42.8092C47.1235 42.4053 46.7382 41.9929 46.305 41.655C45.1813 40.6905 43.6579 40.0539 42.2351 40.5134C40.3247 41.1084 38.8644 43.0853 39.1584 45.1932C39.1937 45.3833 38.9207 45.4816 38.8243 45.3155Z" fill="#03302D"/>
<path d="M57.3771 40.6743C56.8331 39.112 57.5669 37.1472 58.9896 36.1996C61.2951 34.6559 63.9014 36.0325 64.7434 38.4635C64.9342 38.9638 65.0367 39.4832 65.0753 40.0054C65.0933 40.1801 64.852 40.2733 64.7474 40.1342C64.1464 39.3673 63.6381 38.603 62.913 37.9804C60.6739 35.8987 58.0412 38.0424 57.731 40.6366C57.7137 40.8249 57.433 40.854 57.3771 40.6736V40.6743Z" fill="#03302D"/>
<path d="M51.4867 46.9934C49.6563 47.3592 48.5124 47.9793 47.9763 49.8491C47.9561 49.9168 47.8829 49.9549 47.8154 49.9319C47.7797 49.9201 47.7527 49.8928 47.7393 49.8605C47.5517 49.4011 47.5207 48.8677 47.6632 48.352C47.9337 47.309 48.9925 46.5246 50.0502 46.4643C50.5675 46.4238 51.0844 46.5153 51.5234 46.7602C51.6248 46.813 51.5981 46.9747 51.4863 46.993L51.4867 46.9934Z" fill="#03302D"/>
<path d="M57.083 44.9006C58.2586 44.378 59.7272 45.1345 59.9216 46.4181C59.9812 46.6774 59.9996 47.7943 59.5966 47.6666C59.5422 47.648 59.5025 47.6082 59.4816 47.5587C59.2251 47.0027 59.0371 46.4579 58.6093 46.0799C58.1796 45.6968 57.6375 45.5405 57.0761 45.2539C56.9264 45.1886 56.9322 44.9591 57.0826 44.9002L57.083 44.9006Z" fill="#03302D"/>
<path d="M49.323 47.2426C50.0195 49.4821 52.4765 50.6421 54.6814 50.3092C56.3635 50.0897 57.7148 48.8563 58.2278 47.2581C58.4143 46.7125 58.5178 46.1336 58.608 45.5386C58.6192 45.4386 58.7123 45.3668 58.8125 45.3819C58.8944 45.3941 58.955 45.4601 58.9637 45.5386C59.0319 46.1598 59.0196 46.7968 58.9107 47.4342C58.0694 51.9795 52.074 52.7636 49.5892 49.141C49.2349 48.583 49.012 47.9467 48.973 47.3079C48.9666 47.2093 49.0419 47.1243 49.1412 47.1182C49.2248 47.1132 49.2988 47.1662 49.323 47.2426Z" fill="#03302D"/>
<path d="M40.4075 51.889C41.7004 51.8019 42.7009 51.0349 42.6423 50.176C42.5837 49.3171 41.4882 48.6915 40.1954 48.7787C38.9025 48.8659 37.902 49.6328 37.9606 50.4917C38.0192 51.3506 39.1147 51.9762 40.4075 51.889Z" fill="#FD6CCB"/>
<path d="M69.2719 45.6563C69.3641 44.8862 68.3958 44.1385 67.109 43.9862C65.8223 43.8339 64.7045 44.3346 64.6123 45.1047C64.5201 45.8748 65.4884 46.6225 66.7751 46.7748C68.0618 46.9271 69.1796 46.4264 69.2719 45.6563Z" fill="#FD6CCB"/>
<g opacity="0.3">
<path d="M37.685 26.5618C40.2663 25.4824 41.7993 23.2842 41.1088 21.652C40.4184 20.0198 37.7661 19.5716 35.1847 20.651C32.6034 21.7304 31.0704 23.9286 31.7609 25.5608C32.4513 27.193 35.1036 27.6412 37.685 26.5618Z" fill="#8FCBBC"/>
<path d="M32.8143 35.4462C34.0181 35.4462 34.9939 34.4166 34.9939 33.1464C34.9939 31.8763 34.0181 30.8467 32.8143 30.8467C31.6106 30.8467 30.6348 31.8763 30.6348 33.1464C30.6348 34.4166 31.6106 35.4462 32.8143 35.4462Z" fill="#8FCBBC"/>
<path d="M24.5636 38.4979C25.706 38.4979 26.6321 36.9534 26.6321 35.0483C26.6321 33.1431 25.706 31.5986 24.5636 31.5986C23.4212 31.5986 22.4951 33.1431 22.4951 35.0483C22.4951 36.9534 23.4212 38.4979 24.5636 38.4979Z" fill="#8FCBBC"/>
<path d="M47.2486 23.3734C48.7839 23.3734 50.0284 22.3537 50.0284 21.0959C50.0284 19.838 48.7839 18.8184 47.2486 18.8184C45.7133 18.8184 44.4688 19.838 44.4688 21.0959C44.4688 22.3537 45.7133 23.3734 47.2486 23.3734Z" fill="#8FCBBC"/>
</g>
<path d="M89.7795 20.892C89.9609 21.464 89.1464 21.8102 88.8552 21.2851C88.7009 21.0067 88.5057 20.7521 88.2701 20.5333C87.4112 19.7353 86.1876 19.5075 85.0134 19.4598C84.6916 19.4466 84.433 19.7184 84.4705 20.0362L85.6155 29.7298C85.7388 30.7746 84.6577 31.7591 83.2014 31.9291C81.744 32.0992 80.463 31.3908 80.3397 30.346C80.2163 29.3012 81.2974 28.3167 82.7544 28.1467C83.2793 28.0853 83.7807 28.1381 84.2136 28.2801L82.9016 17.173C82.841 16.6612 83.2119 16.4395 83.6321 16.6393C83.9557 16.9061 84.3237 17.1375 84.6815 17.3484C85.5938 17.8849 86.6226 18.1941 87.5685 18.6686C88.5147 19.1442 89.4198 19.8468 89.7632 20.8443C89.7686 20.86 89.774 20.8762 89.7791 20.8927L89.7795 20.892Z" fill="#03302D"/>
<path d="M95.8497 9.9525L95.4951 12.9398C95.6989 12.8659 95.9392 12.8358 96.1913 12.8638C96.8551 12.9369 97.35 13.3824 97.297 13.8584C97.244 14.3343 96.6625 14.661 95.9987 14.5875C95.335 14.514 94.84 14.0689 94.8931 13.5929C94.8931 13.5901 94.8938 13.5876 94.8941 13.5847L95.2278 10.7824L92.1558 9.67812L91.8178 12.5191C92.0147 12.4535 92.2427 12.4276 92.4819 12.4542C93.1456 12.5273 93.6406 12.9728 93.5875 13.4488C93.5345 13.9247 92.953 14.2514 92.2892 14.1779C91.6255 14.1048 91.1306 13.6593 91.1836 13.1833L91.72 8.56518C91.7611 8.19827 92.1453 7.97375 92.4877 8.11685L95.5121 9.38186C95.739 9.47691 95.8761 9.70896 95.849 9.95214L95.8497 9.9525Z" fill="#03302D"/>
<path d="M76.3733 1.8817L76.5663 4.8292C76.7499 4.72196 76.9764 4.65023 77.225 4.63265C77.879 4.58603 78.437 4.92819 78.4709 5.39733C78.5049 5.86646 78.002 6.28466 77.348 6.33165C76.6939 6.37863 76.1359 6.03611 76.102 5.56697C76.102 5.56446 76.102 5.56159 76.102 5.55908L75.9223 2.79378L72.7579 2.27156L72.9405 5.07489C73.1187 4.97661 73.3348 4.91133 73.5703 4.89448C74.2243 4.84749 74.7824 5.19002 74.8163 5.65915C74.8502 6.12828 74.3474 6.54649 73.6933 6.59347C73.0393 6.64046 72.4813 6.29793 72.4473 5.8288L72.1382 1.27412C72.1119 0.912585 72.443 0.627447 72.7994 0.705277L75.9465 1.39104C76.1828 1.44233 76.3567 1.64247 76.374 1.88206L76.3733 1.8817Z" fill="#03302D"/>
<path d="M76.6577 15.4159C76.6884 15.4869 76.5928 15.545 76.543 15.4855C76.2194 15.0999 75.7209 14.8528 75.2216 14.8972C74.6964 14.9439 74.2537 15.2832 73.8865 15.6594C73.7877 15.7605 73.8046 15.9266 73.9211 16.008L76.285 17.6622C76.6721 17.933 76.6793 18.585 76.302 19.1184C75.9243 19.6521 75.3042 19.8651 74.9175 19.5943C74.5304 19.3235 74.5232 18.6715 74.9009 18.1378C75.0369 17.9455 75.2043 17.7953 75.381 17.6941L72.4933 15.6734C72.3036 15.5407 72.34 15.3517 72.5323 15.272C72.7184 15.2444 72.9057 15.1917 73.0831 15.1358C73.5351 14.9937 73.946 14.7448 74.3872 14.573C74.8291 14.4016 75.3345 14.3112 75.7714 14.4948C76.1007 14.6333 76.4914 15.0282 76.6577 15.4155V15.4159Z" fill="#03302D"/>
</g>
<defs>
<clipPath id="clip0_260_2241">
<rect width="106" height="107.282" fill="white" transform="translate(0 0.692383)"/>
</clipPath>
</defs>
</svg>
