<svg width="142" height="108" viewBox="0 0 142 108" fill="none" xmlns="http://www.w3.org/2000/svg">
<g clip-path="url(#clip0_260_2874)">
<path d="M71.5503 8.42624L68.6984 9.05981L68.3164 0.693359L71.5503 8.42624Z" fill="#FFBA0A"/>
<path d="M72.5752 22.4285L75.427 21.7949L75.809 30.1614L72.5752 22.4285Z" fill="#FFBA0A"/>
<path d="M77.9006 11.487L75.9268 9.34624L83.0211 4.83789L77.9006 11.487Z" fill="#FFBA0A"/>
<path d="M66.225 19.3672L68.1989 21.508L61.1045 26.0163L66.225 19.3672Z" fill="#FFBA0A"/>
<path d="M75.153 9.11657L72.3682 8.23958L76.2588 0.813477L75.153 9.11657Z" fill="#FFBA0A"/>
<path d="M68.9731 21.7383L71.7612 22.6153L67.8672 30.0414L68.9731 21.7383Z" fill="#FFBA0A"/>
<path d="M79.0997 14.9352L78.4697 12.0941L86.8811 11.7373L79.0997 14.9352Z" fill="#FFBA0A"/>
<path d="M65.0251 15.9229L65.6551 18.7606L57.2471 19.1207L65.0251 15.9229Z" fill="#FFBA0A"/>
<path d="M75.9297 21.2979L78.1113 19.3672L82.5314 26.4932L75.9297 21.2979Z" fill="#FFBA0A"/>
<path d="M68.1955 9.5566L66.0139 11.4907L61.5938 4.36133L68.1955 9.5566Z" fill="#FFBA0A"/>
<path d="M78.4268 18.4564L79.288 15.6787L86.7812 19.4968L78.4268 18.4564Z" fill="#FFBA0A"/>
<path d="M65.6987 12.4011L64.8375 15.1788L57.3477 11.3574L65.6987 12.4011Z" fill="#FFBA0A"/>
<path d="M71.8648 23.2181C76.1087 23.2181 79.549 19.7948 79.549 15.572C79.549 11.3491 76.1087 7.92578 71.8648 7.92578C67.621 7.92578 64.1807 11.3491 64.1807 15.572C64.1807 19.7948 67.621 23.2181 71.8648 23.2181Z" fill="#FFBA0A"/>
<path d="M132.155 63.734C132.155 63.734 136.357 60.9296 135.302 59.1056C134.37 57.495 132.916 60.1627 132.916 60.1627C132.916 60.1627 133.023 57.7551 131.803 57.9819C130.218 58.2786 130.587 61.5032 132.155 63.734Z" fill="#FFFBD9"/>
<path d="M79.9374 59.1514C79.9374 59.1514 83.7711 56.5938 82.8094 54.9265C81.9582 53.456 80.6311 55.8902 80.6311 55.8902C80.6311 55.8902 80.7283 53.6927 79.6157 53.8995C78.168 54.1696 78.5032 57.114 79.9341 59.1481L79.9374 59.1514Z" fill="#FF3224"/>
<path d="M41.6375 39.2543C41.6375 39.2543 43.4437 36.2131 42.4485 35.0961C41.5705 34.1124 41.3091 36.4266 41.3091 36.4266C41.3091 36.4266 40.8533 34.6126 40.2032 35.0594C39.3587 35.6396 40.2602 37.9538 41.6375 39.2543Z" fill="#FFFBD9"/>
<path d="M5.66965 36.0868C5.66965 36.0868 -0.543366 32.9957 0.344687 30.2313C1.12885 27.7904 3.72934 31.2383 3.72934 31.2383C3.72934 31.2383 2.95188 27.8904 4.60064 27.9671C6.74202 28.0672 7.11735 32.6555 5.66965 36.0868Z" fill="#FD8CD2"/>
<path d="M90.1149 56.2178L97.6985 64.1474H82.5312L90.1149 56.2178Z" fill="#14A698"/>
<path d="M90.1153 60.8486L93.2721 64.1465H86.9619L90.1153 60.8486Z" fill="#FD8CD2"/>
<path d="M105.507 64.127H82.5312V87.2156H105.507V64.127Z" fill="#1C97D1"/>
<path d="M90.202 64.127L90.2657 87.2156L82.5312 64.127H90.202Z" fill="#F8441F"/>
<path d="M99.7699 23.1283C99.7699 23.1283 101.831 21.5444 103.52 23.225C105.209 24.9056 106.78 25.1691 109.22 23.3017C109.22 23.3017 109.465 24.4188 107.756 25.4392C107.756 25.4392 108.516 25.6726 108.986 25.4392C108.986 25.4392 108.342 27.2065 105.959 27.4399C104.086 27.6233 104.17 26.4862 102.689 26.1228C101.848 25.916 100.956 26.1061 100.226 26.5729L99.6895 26.9164L99.7665 23.1283H99.7699Z" fill="#FFFBD9"/>
<path d="M99.8165 22.0879L99.5752 33.5455" stroke="#FF3224" stroke-miterlimit="10" stroke-linecap="round"/>
<path d="M105.51 51.3486H93.8682V64.2201H105.51V51.3486Z" fill="#EFDCAA"/>
<path d="M105.51 51.3486H93.8682L96.2207 46.877H103.154L105.51 51.3486Z" fill="#1C97D1"/>
<path d="M99.6897 33.0059L103.155 46.8777H96.2246L99.6897 33.0059Z" fill="#FD8CD2"/>
<path d="M109.793 90.6104H127.534V48.5814H109.793V90.6104Z" fill="#FD8CD2"/>
<path d="M113.329 90.2969V48.5146L127.468 90.5437L113.329 90.2969Z" fill="#1C97D1"/>
<path d="M127.531 58.935V48.7979H117.344C117.344 54.3966 121.905 58.935 127.531 58.935Z" fill="#EFDCAA"/>
<path d="M118.687 17.6762C118.687 17.6762 120.748 16.0922 122.437 17.7729C124.126 19.4535 125.697 19.7169 128.137 17.8496C128.137 17.8496 128.382 18.9666 126.673 19.987C126.673 19.987 127.433 20.2204 127.903 19.987C127.903 19.987 127.259 21.7544 124.876 21.9878C123.003 22.1712 123.087 21.0341 121.606 20.6706C120.765 20.4639 119.873 20.6539 119.143 21.1208L118.606 21.4642L118.684 17.6762H118.687Z" fill="#F8441F"/>
<path d="M118.734 16.6357L118.493 28.09" stroke="#FF3224" stroke-miterlimit="10" stroke-linecap="round"/>
<path d="M118.56 27.1436L126.18 45.4804H110.939L118.56 27.1436Z" fill="#FFBA0A"/>
<path d="M111.772 41.5041L109.161 41.5127L109.186 48.8321L111.796 48.8234L111.772 41.5041Z" fill="#F8441F"/>
<path d="M117.228 41.4826L114.617 41.4912L114.642 48.8106L117.252 48.802L117.228 41.4826Z" fill="#F8441F"/>
<path d="M122.683 41.4679L120.072 41.4766L120.097 48.7959L122.707 48.7873L122.683 41.4679Z" fill="#F8441F"/>
<path d="M128.139 41.4494L125.528 41.458L125.553 48.7774L128.163 48.7688L128.139 41.4494Z" fill="#F8441F"/>
<path d="M128.154 44.2725H109.173V48.8008H128.154V44.2725Z" fill="#F8441F"/>
<path d="M109.452 51.332L105.527 58.9549H113.339L109.452 51.332Z" fill="#F8441F"/>
<path d="M113.339 58.9551H105.527V89.7399H113.339V58.9551Z" fill="#14A698"/>
<path d="M38.6854 71.7333H15.71L15.9579 48.6113H38.6117L38.6854 71.7333Z" fill="#1C97D1"/>
<path d="M23.5483 48.6313L23.6623 71.7333L15.958 48.6113L23.5483 48.6313Z" fill="#14A698"/>
<path d="M38.6117 48.6113C29.9423 48.6113 23.0322 55.6339 23.0322 64.2605H38.729L38.6117 48.6113Z" fill="#EFDCAA"/>
<path d="M28.0658 17.6762C28.0658 17.6762 30.1267 16.0922 31.8157 17.7729C33.5047 19.4535 35.0764 19.7169 37.516 17.8496C37.516 17.8496 37.7606 18.9666 36.0516 19.987C36.0516 19.987 36.8123 20.2204 37.2814 19.987C37.2814 19.987 36.638 21.7544 34.2553 21.9878C32.382 22.1712 32.4658 21.0341 30.9846 20.6706C30.1435 20.4639 29.2521 20.6539 28.5215 21.1208L27.9854 21.4642L28.0624 17.6762H28.0658Z" fill="#FFFBD9"/>
<path d="M28.1124 16.6357L27.8711 28.09" stroke="#FF3224" stroke-miterlimit="10" stroke-linecap="round"/>
<path d="M27.8709 26.9268L35.4914 45.2603H20.2471L27.8709 26.9268Z" fill="#FFBA0A"/>
<path d="M21.0793 41.3L18.4688 41.3086L18.4931 48.6113L21.1036 48.6027L21.0793 41.3Z" fill="#F8441F"/>
<path d="M26.5383 41.3019L23.9277 41.3105L23.9521 48.6132L26.5626 48.6046L26.5383 41.3019Z" fill="#F8441F"/>
<path d="M31.9943 41.3L29.3838 41.3086L29.4081 48.6113L32.0187 48.6027L31.9943 41.3Z" fill="#F8441F"/>
<path d="M37.4494 41.299L34.8389 41.3076L34.8632 48.6103L37.4737 48.6017L37.4494 41.299Z" fill="#F8441F"/>
<path d="M37.4623 44.0967H18.4814V48.615H37.4623V44.0967Z" fill="#F8441F"/>
<path d="M31.0919 63.0098L38.6822 70.846L38.9034 89.8798H23.3574V70.5192L31.0919 63.0098Z" fill="#FD8CD2"/>
<path d="M31.0919 63.0098H19.5673L12.0205 70.5192H23.3574L31.0919 63.0098Z" fill="#F8441F"/>
<path d="M23.3574 70.5195H12.0205V89.8801H23.3574V70.5195Z" fill="#FFBA0A"/>
<path d="M60.1293 33.5453C60.1293 33.5453 62.1902 31.9614 63.8792 33.642C65.5682 35.3226 67.1398 35.5861 69.5795 33.7187C69.5795 33.7187 69.8241 34.8358 68.115 35.8562C68.115 35.8562 68.8757 36.0896 69.3449 35.8562C69.3449 35.8562 68.7015 37.6235 66.3188 37.8569C64.4455 38.0403 64.5293 36.9032 63.0481 36.5398C62.207 36.333 61.3156 36.5231 60.585 36.9899L60.0488 37.3334L60.1259 33.5453H60.1293Z" fill="#F8441F"/>
<path d="M60.1759 32.5049L59.9346 43.9592" stroke="#FF3224" stroke-miterlimit="10" stroke-linecap="round"/>
<path d="M59.9387 42.6953L55.8838 50.3182H64.4057L59.9387 42.6953Z" fill="#F8441F"/>
<path d="M64.4057 69.1787L55.8838 75.5144V50.3184H64.4057V69.1787Z" fill="#1C97D1"/>
<path d="M55.887 68.3984H38.6621V87.4422H55.887V68.3984Z" fill="#F8441F"/>
<path d="M55.8836 68.3984H38.6621L42.1439 61.7793H52.4051L55.8836 68.3984Z" fill="#FFBA0A"/>
<path d="M47.2747 41.2549L52.4053 61.7792H42.1475L47.2747 41.2549Z" fill="#FD8CD2"/>
<path d="M55.883 75.5381L55.6484 94.9953H66.9854V75.6348L55.883 75.5381Z" fill="#FD8CD2"/>
<path d="M74.7206 68.125H63.196L55.8838 75.5378L66.9861 75.6345L74.7206 68.125Z" fill="#14A698"/>
<path d="M74.7198 68.125L82.5313 75.9513V94.995H66.9854V75.6345L74.7198 68.125Z" fill="#F8441F"/>
<path d="M127.822 89.7631C127.822 87.2088 125.078 85.138 121.69 85.138C120.852 85.138 120.054 85.2647 119.327 85.4948C118.586 83.9209 116.985 82.8271 115.121 82.8271C113.014 82.8271 111.237 84.2243 110.668 86.1351C110.165 85.9483 109.622 85.8449 109.056 85.8449C107.223 85.8449 105.641 86.9053 104.884 88.4426C104.093 87.8257 103.101 87.4522 102.018 87.4522C100.299 87.4522 98.8013 88.3825 97.9971 89.7631H127.822Z" fill="#FFBA0A"/>
<path d="M39.1817 89.89C38.2401 87.6025 36.0987 86.0019 33.6021 86.0019C32.513 86.0019 31.4909 86.312 30.6062 86.8455C29.9259 84.0578 27.5499 81.9971 24.7182 81.9971C22.0909 81.9971 19.8591 83.7711 19.0045 86.252C18.475 86.0919 17.9187 86.0019 17.3423 86.0019C14.8457 86.0019 12.7044 87.6025 11.7627 89.89H39.1817Z" fill="#1C97D1"/>
<path d="M73.8522 99.1162L72.4883 95.825C72.4883 95.825 79.3548 79.769 103.466 86.785C109.79 88.6257 116.036 90.8565 129.763 88.4256L136.046 103.535L79.6497 104.428L73.8522 99.1162Z" fill="#FFFBD9"/>
<mask id="mask0_260_2874" style="mask-type:luminance" maskUnits="userSpaceOnUse" x="72" y="85" width="65" height="20">
<path d="M73.8522 99.1162L72.4883 95.825C72.4883 95.825 79.3548 79.769 103.466 86.785C109.79 88.6257 116.036 90.8565 129.763 88.4256L136.046 103.535L79.6497 104.428L73.8522 99.1162Z" fill="white"/>
</mask>
<g mask="url(#mask0_260_2874)">
<path d="M82.6287 89.4989C82.6287 89.4823 82.4276 89.549 82.7293 89.4156C83.681 88.9854 84.5154 88.8254 85.5442 88.6253L85.6146 88.5886C86.4189 88.4685 87.27 88.4085 88.1413 88.3985C89.7465 88.3618 91.3517 88.4585 92.9402 88.6553C92.9 88.6419 92.8799 88.6286 93.0407 88.6486C93.7042 88.722 94.6158 88.8754 95.5574 89.0454C95.6982 89.0688 95.8356 89.0921 95.973 89.1188C96.0802 89.1321 96.1104 89.1288 96.1305 89.1288C96.5561 89.2155 96.9347 89.2889 97.2866 89.3589C99.6056 89.799 101.935 90.3292 104.347 90.7561C106.76 91.1896 109.25 91.5297 111.847 91.7831C112.946 91.8732 114.049 91.9565 115.111 92.0165C116.683 92.1232 118.69 92.2266 120.225 92.25C120.108 92.2033 120.986 92.1899 121.797 92.1533C122.608 92.1232 123.355 92.0699 122.983 92.0332C124.005 92.0265 125.537 91.9732 125.614 91.9432C125.731 91.8998 125.986 91.8498 126.542 91.7798C127.098 91.7031 127.966 91.6231 129.28 91.3763C129.793 91.2829 130.439 91.1462 130.992 90.9895C131.549 90.8394 132.004 90.6627 132.172 90.5893C132.44 90.4693 132.115 90.5893 131.8 90.6894C131.478 90.7894 131.157 90.8794 131.425 90.7761C129.598 91.3696 127.665 91.5597 125.738 91.6497C123.804 91.7298 121.871 91.7564 119.937 91.7231C116.073 91.6564 112.203 91.343 108.288 90.7694C107.622 90.686 105.996 90.446 103.878 90.0391C101.76 89.6357 99.1498 89.0187 96.4421 88.5019C93.7377 87.9784 90.9127 87.6349 88.4664 87.6682C87.2432 87.6816 86.1139 87.7916 85.1555 87.9684C84.197 88.1484 83.4095 88.3852 82.8465 88.6053L82.4444 88.7753C81.2279 89.2788 79.9847 90.0625 78.9358 90.9862C77.8835 91.9065 77.0223 92.9435 76.3889 93.8372C75.8058 94.6575 75.3065 95.5479 74.8407 96.4449C75.0819 96.0414 75.3065 95.6679 75.5142 95.3545C74.9814 96.2348 74.5123 97.1485 74.3614 97.5119C73.909 98.5056 73.8554 98.7391 73.9291 98.619C74.0297 98.4356 74.2475 98.0354 74.4452 97.672C74.7301 97.1418 74.4017 97.8854 74.8507 97.0584C74.6899 97.3585 74.5826 97.5853 74.4754 97.8187C74.3715 98.0488 74.2509 98.2755 74.1235 98.589C74.09 98.659 74.9982 96.695 74.8373 97.1385C74.5324 97.7153 74.2408 98.3856 73.9828 99.0091C74.0464 98.9091 74.2676 98.3656 74.5089 97.8787C74.7334 97.3852 74.9781 96.9484 74.968 96.9984C74.7904 97.3152 74.1068 98.6924 74.1034 98.8324C74.1001 98.8591 74.3648 98.2355 74.5156 97.9354C74.08 98.8791 73.8052 99.6394 73.7113 99.9328C73.6208 100.23 73.6979 100.056 74.0699 99.1859C73.8152 99.7928 73.4801 100.66 73.2656 101.32C73.2656 101.32 73.2656 101.32 73.2656 101.317C73.3829 100.99 73.5773 100.423 73.6979 100.126C73.5538 100.493 73.4332 100.87 73.2991 101.24C73.3259 101.18 73.3528 101.117 73.3829 101.05C73.4868 100.773 73.5806 100.493 73.6912 100.206C73.594 100.45 73.517 100.7 73.4265 100.947C73.5036 100.756 73.5907 100.55 73.6845 100.326C74.0364 99.4627 74.4151 98.6557 74.6329 98.2022C75.4841 96.3615 76.5397 94.6075 77.8634 93.0836C79.1804 91.563 80.7856 90.2792 82.6187 89.4956L82.6287 89.4989Z" fill="#EFDCAA"/>
<path d="M87.5418 94.4879C87.5418 94.4879 87.344 94.4979 87.6524 94.4246C88.6376 94.2478 89.4419 94.1778 90.4271 94.0044L90.4941 93.9677C91.2649 93.8977 92.0725 93.8543 92.8969 93.7943L93.4632 93.7443L94.0329 93.7276L95.169 93.701L96.3017 93.6709C96.6803 93.6709 97.0557 93.6876 97.4343 93.6976C97.3941 93.6876 97.3774 93.6776 97.5282 93.6809C97.8432 93.6909 98.2152 93.7009 98.624 93.7143C98.8284 93.721 99.0395 93.731 99.2574 93.7376C99.4752 93.7543 99.6964 93.771 99.9209 93.7876C100.055 93.7977 100.186 93.8043 100.316 93.8143C100.42 93.8143 100.447 93.811 100.464 93.8043C100.869 93.8377 101.231 93.8643 101.566 93.891C105.986 94.2011 110.454 94.8881 115.306 95.515C116.335 95.6417 117.364 95.7584 118.356 95.8651C119.82 96.0552 121.7 96.2519 123.134 96.3819C122.923 96.2786 126.428 96.4653 125.731 96.3319C126.69 96.3586 128.127 96.3853 128.201 96.3653C128.426 96.3086 129.163 96.2086 131.69 96.0652C132.675 95.9551 134.19 95.8384 134.538 95.7884C135.081 95.7084 133.255 95.8651 133.798 95.7851C130.148 96.2019 126.516 96.1419 122.903 95.8451C119.287 95.5416 115.678 95.0148 111.982 94.4712C111.348 94.3845 109.813 94.1745 107.799 93.8977C105.779 93.6409 103.272 93.3108 100.688 93.1441C99.3981 93.0274 98.0878 93.0107 96.8177 92.9673C96.4994 92.9507 96.1844 92.954 95.8727 92.9673C95.561 92.974 95.2527 92.9807 94.9444 92.9874C94.3345 93.0074 93.7414 92.9974 93.1717 93.044C92.602 93.0907 92.0558 93.1374 91.5397 93.1808C91.0236 93.2308 90.5343 93.2474 90.092 93.3308C89.2006 93.4709 88.4533 93.5842 87.9037 93.6709C87.7696 93.6943 87.6389 93.7076 87.5049 93.741C86.3119 93.9744 85.0049 94.3279 83.7851 94.7814C82.562 95.2315 81.4259 95.7884 80.5479 96.3353C79.7504 96.8455 78.9595 97.409 78.2658 98.0759C78.4401 97.9359 78.6076 97.8025 78.7651 97.6758C78.926 97.549 79.0902 97.449 79.2343 97.3456C78.8355 97.6257 78.4769 97.9559 78.1619 98.2226C77.867 98.5094 77.6324 98.7528 77.5051 98.8896C77.1733 99.2864 76.9723 99.5331 76.8751 99.6698C76.7846 99.8132 76.7812 99.8366 76.8282 99.7899C76.9119 99.6865 77.2672 99.3431 77.542 99.0596C77.9541 98.6695 77.4481 99.243 78.0915 98.6361C77.6324 99.0763 77.4314 99.323 77.0225 99.8132C76.9991 99.8432 77.3208 99.4731 77.609 99.133C77.9139 98.8095 78.2021 98.5361 78.058 98.7061C77.9474 98.8129 77.8369 98.9229 77.7229 99.0363C77.6123 99.1497 77.5118 99.2797 77.4046 99.4031L77.0896 99.7766C76.9957 99.9099 76.9019 100.04 76.8081 100.17C76.8483 100.13 76.9488 100 77.0761 99.8299C77.2135 99.6632 77.3912 99.4698 77.5554 99.2764C77.8938 98.8962 78.2457 98.5861 78.2155 98.6261C77.9642 98.8529 76.9622 99.8899 76.9555 100.04C76.9555 100.053 77.0393 99.9266 77.1599 99.7766C77.2873 99.6298 77.4414 99.4498 77.5453 99.3297C77.3912 99.5164 77.237 99.6865 77.1097 99.8532C76.989 100.027 76.8784 100.183 76.7779 100.327C76.5701 100.604 76.4662 100.844 76.3959 100.967C76.3288 101.094 76.3255 101.124 76.3959 101.027C76.4327 100.97 76.4863 100.894 76.5567 100.787C76.5936 100.73 76.6371 100.664 76.6841 100.59C76.7377 100.52 76.798 100.44 76.865 100.353C76.674 100.594 76.4998 100.917 76.302 101.23C76.1144 101.551 75.9703 101.901 75.8262 102.187C75.8965 102.041 75.9904 101.844 76.0876 101.647C76.1345 101.551 76.1814 101.454 76.225 101.367C76.2752 101.284 76.3221 101.204 76.3624 101.14L76.2216 101.377L76.1043 101.624L75.8697 102.117C75.8999 102.064 75.9334 102.011 75.9669 101.951C76.0943 101.711 76.1914 101.454 76.3456 101.214C76.2116 101.417 76.1278 101.644 76.0172 101.861C76.111 101.704 76.2015 101.517 76.3221 101.324C76.5534 100.96 76.7712 100.604 77.0125 100.32C77.1264 100.173 77.2303 100.037 77.3275 99.9166C77.4314 99.7999 77.5252 99.6965 77.5989 99.6098C78.2088 98.9029 78.9092 98.266 79.68 97.7191C80.4474 97.1689 81.2617 96.6754 82.1196 96.2719C83.832 95.4449 85.6685 94.868 87.5351 94.4846L87.5418 94.4879Z" fill="#EFDCAA"/>
<path d="M92.159 100.229C92.159 100.229 91.968 100.209 92.2729 100.186C93.228 100.126 93.9954 100.169 94.9538 100.162L95.0242 100.139C95.7648 100.159 96.5389 100.199 97.3265 100.249C98.7808 100.313 100.229 100.416 101.673 100.513C101.636 100.499 101.619 100.493 101.763 100.499C102.363 100.533 103.194 100.613 104.056 100.683C104.183 100.693 104.31 100.699 104.434 100.709C104.531 100.709 104.558 100.706 104.575 100.699C104.964 100.733 105.309 100.763 105.631 100.793C109.863 101.089 114.166 101.413 118.837 101.576C119.826 101.586 120.815 101.62 121.766 101.62C123.177 101.646 124.977 101.673 126.354 101.646C126.247 101.606 127.034 101.553 127.758 101.503C128.485 101.443 129.152 101.37 128.817 101.343C129.273 101.32 129.846 101.29 130.312 101.266C130.778 101.226 131.136 101.19 131.17 101.176C131.374 101.073 132.074 100.976 134.471 100.636C135.409 100.513 136.85 100.303 137.178 100.243C137.694 100.139 135.955 100.376 136.471 100.273C129.514 101.346 122.681 101.293 115.59 100.836C114.987 100.809 113.512 100.719 111.579 100.576C109.645 100.423 107.249 100.233 104.796 100.039C102.343 99.849 99.8331 99.6523 97.6649 99.5389C95.4967 99.4222 93.6704 99.4289 92.6114 99.4722L92.226 99.4889C91.0699 99.5456 89.7897 99.659 88.5666 99.8724C87.3434 100.076 86.1772 100.376 85.2456 100.689C84.391 100.979 83.5432 101.33 82.7255 101.74C83.1176 101.576 83.4795 101.43 83.8046 101.323C82.94 101.66 82.1156 102.08 81.8107 102.263C80.9561 102.757 80.802 102.907 80.9193 102.857C81.0935 102.773 81.4588 102.597 81.7939 102.433C82.2832 102.207 81.6565 102.58 82.4172 102.21C81.8777 102.487 81.6096 102.633 81.0868 102.95C81.06 102.974 81.4621 102.733 81.8308 102.523C82.2061 102.323 82.5446 102.15 82.367 102.267C81.8408 102.527 81.2778 102.86 80.7685 103.19C80.8656 103.147 81.308 102.867 81.7369 102.633C82.1659 102.4 82.568 102.2 82.5345 102.24C82.3904 102.317 82.005 102.497 81.6532 102.69C81.3013 102.88 80.9829 103.077 80.9461 103.127C80.9394 103.137 81.0634 103.06 81.2209 102.964C81.3817 102.87 81.5794 102.757 81.7101 102.683C80.8992 103.144 80.3228 103.58 80.1083 103.754C79.9005 103.937 80.0379 103.837 80.7484 103.38C80.2591 103.704 79.5855 104.187 79.123 104.601H79.1264C79.3643 104.397 79.7799 104.067 80.0111 103.901C79.7263 104.107 79.4548 104.331 79.1867 104.557C79.2336 104.524 79.2873 104.491 79.3409 104.454C79.5419 104.287 79.7497 104.124 79.9709 103.964C79.7832 104.104 79.5989 104.244 79.4213 104.397C79.562 104.294 79.7263 104.177 79.9106 104.057C80.5841 103.574 81.2778 103.184 81.6699 102.967C83.2416 102.073 84.9641 101.43 86.7301 100.996C88.4995 100.559 90.3226 100.336 92.1456 100.243L92.159 100.229Z" fill="#EFDCAA"/>
<path d="M86.174 91.62C86.174 91.62 85.9662 91.6433 86.2845 91.55C87.2932 91.2832 88.131 91.1931 89.1699 91.0698L89.2436 91.0398C90.0512 90.9731 90.8957 90.9531 91.757 90.9731C93.3487 90.9831 94.9305 91.1398 96.5022 91.3565C96.462 91.3432 96.4452 91.3299 96.6027 91.3499C97.2562 91.4399 98.1576 91.5933 99.0926 91.7667C99.23 91.79 99.3708 91.8134 99.5048 91.8367C99.612 91.8501 99.6422 91.8467 99.6589 91.8467C100.081 91.9301 100.457 92.0001 100.805 92.0701C105.41 92.9271 110.131 93.6274 115.269 94.0676C116.358 94.1543 117.443 94.2243 118.492 94.291C120.044 94.3977 122.028 94.5344 123.543 94.5911C123.315 94.5077 127.011 94.5644 126.274 94.451C127.282 94.4777 128.8 94.4877 128.878 94.461C128.995 94.4244 129.25 94.3843 129.802 94.3377C130.355 94.281 131.22 94.251 132.503 94.0109C133.006 93.9175 133.633 93.7674 134.156 93.5707C134.682 93.384 135.094 93.1439 135.245 93.0538C135.489 92.8971 135.188 93.0605 134.9 93.1972C134.605 93.3306 134.303 93.4473 134.551 93.3239C132.849 94.0776 130.915 94.1676 129.015 94.1743C127.098 94.1676 125.185 94.1309 123.271 94.0542C119.447 93.9008 115.62 93.5974 111.73 93.1139C111.066 93.0438 109.451 92.8471 107.343 92.5237C105.229 92.2102 102.635 91.7267 99.9639 91.2165C97.293 90.713 94.5216 90.2995 92.1021 90.2495C89.6826 90.1861 87.6585 90.4996 86.5124 90.773L86.0969 90.873C84.8502 91.1932 83.493 91.68 82.2866 92.3636C81.0769 93.0338 80.0213 93.8808 79.2773 94.6811C78.587 95.4081 77.9871 96.2284 77.4409 97.0653C77.7157 96.6885 77.9804 96.3484 78.225 96.0616C77.5917 96.8619 77.0555 97.7289 76.8645 98.0657C76.3249 98.9994 76.2412 99.2195 76.3249 99.1094C76.4154 98.9994 76.6902 98.5692 76.9315 98.2291C77.2666 97.7356 76.8745 98.4392 77.394 97.6656C77.0354 98.2291 76.8611 98.5159 76.526 99.0994C76.5193 99.1394 76.7706 98.6893 77.0119 98.2891C77.2532 97.889 77.4811 97.5388 77.3739 97.7456C77.0153 98.2825 76.6668 98.9127 76.3384 99.4996C76.4087 99.4062 76.6936 98.8994 76.9751 98.4425C77.2532 97.9824 77.528 97.5689 77.5146 97.6222C77.3135 97.9223 76.4959 99.2028 76.4757 99.3395C76.469 99.3662 76.8008 98.7826 76.9751 98.4992C76.4523 99.3862 76.0937 100.1 75.963 100.38C75.8357 100.66 75.9362 100.5 76.4087 99.6863C76.0937 100.257 75.648 101.067 75.333 101.684C75.333 101.684 75.333 101.684 75.333 101.68C75.4939 101.377 75.7754 100.85 75.9262 100.57C75.7452 100.917 75.5609 101.264 75.3766 101.61C75.4101 101.557 75.4469 101.497 75.4872 101.437C75.6279 101.177 75.7653 100.917 75.9094 100.65C75.7888 100.88 75.6681 101.11 75.5441 101.34C75.648 101.167 75.7653 100.973 75.8859 100.767C76.3417 99.9564 76.8075 99.2061 77.0622 98.7793C78.091 97.0587 79.2874 95.4214 80.8423 94.1909C82.3872 92.9538 84.237 92.1168 86.1639 91.6133L86.174 91.62Z" fill="#EFDCAA"/>
<path d="M90.2255 96.8151C90.2255 96.8151 90.0345 96.8118 90.3361 96.7618C91.2911 96.6351 92.0686 96.6217 93.0371 96.585L93.1075 96.5584C93.8581 96.5484 94.6389 96.5717 95.4365 96.6151C96.9043 96.6717 98.3654 96.8018 99.8198 96.9685C99.7829 96.9552 99.7662 96.9452 99.9103 96.9585C100.517 97.0252 101.351 97.1452 102.219 97.2686C102.347 97.2853 102.477 97.302 102.601 97.3186C102.702 97.3286 102.729 97.322 102.745 97.3186C103.137 97.3787 103.486 97.432 103.808 97.4787C108.074 98.0856 112.444 98.5524 117.182 98.7792C118.191 98.8092 119.199 98.8426 120.155 98.8692C121.585 98.9159 123.412 98.9693 124.809 98.9759C124.595 98.8992 127.996 98.8292 127.316 98.7425C128.244 98.7358 129.635 98.6558 129.705 98.6191C129.809 98.5758 130.037 98.5158 130.543 98.4324C131.046 98.3357 131.83 98.229 133.01 97.9455C133.472 97.8422 134.052 97.6821 134.551 97.5254C135.047 97.362 135.459 97.1919 135.61 97.1252C135.851 97.0085 135.556 97.1219 135.272 97.2219C134.987 97.3287 134.688 97.4053 134.933 97.312C133.291 97.9089 131.555 98.1956 129.813 98.329C128.07 98.4624 126.307 98.4624 124.548 98.4591C121.026 98.4424 117.497 98.2957 113.905 97.9889C113.291 97.9455 111.8 97.8255 109.85 97.6054C107.896 97.3953 105.49 97.0452 103.017 96.6817C100.544 96.3216 97.9934 96.0048 95.7817 95.9081C93.5699 95.7947 91.71 95.9081 90.6343 96.0282C90.5036 96.0415 90.3729 96.0548 90.2456 96.0749C89.0727 96.2149 87.7858 96.475 86.5761 96.8385C85.3663 97.1986 84.237 97.6688 83.3456 98.129C82.5246 98.5424 81.7437 99.0593 80.9998 99.6128C81.355 99.3694 81.7069 99.176 81.9984 98.9959C81.2009 99.4961 80.4468 100.06 80.1855 100.316C79.8101 100.65 79.5856 100.857 79.4851 100.983C79.3778 101.107 79.3678 101.127 79.4214 101.09C79.475 101.053 79.589 100.953 79.7297 100.837C79.8772 100.727 80.0447 100.603 80.2022 100.486C80.6412 100.156 80.0883 100.647 80.7786 100.14C80.5273 100.32 80.3564 100.476 80.1821 100.627C80.0078 100.78 79.8235 100.92 79.6091 101.143C79.542 101.177 81.04 99.8929 80.7384 100.203C80.2659 100.56 79.7733 101.01 79.3443 101.45C79.4382 101.394 79.8001 101.003 80.1855 100.693C80.5541 100.363 80.9294 100.103 80.8993 100.143C80.6178 100.32 79.5487 101.22 79.5085 101.347C79.4985 101.37 79.9308 100.933 80.1721 100.743C79.4583 101.363 78.9891 101.927 78.8215 102.15C78.654 102.374 78.7713 102.25 79.3678 101.637C79.1567 101.844 78.9288 102.12 78.6841 102.387C78.4529 102.667 78.2384 102.964 78.0508 103.214H78.0541C78.2485 102.964 78.5635 102.527 78.7579 102.314C78.5233 102.581 78.3222 102.877 78.1044 103.157C78.1446 103.114 78.1882 103.067 78.2317 103.017C78.3993 102.811 78.5501 102.594 78.7311 102.384C78.5769 102.561 78.4429 102.757 78.2988 102.944C78.4194 102.804 78.5501 102.651 78.6909 102.487C79.2505 101.864 79.8436 101.323 80.1888 101.03C80.8657 100.416 81.6264 99.8996 82.4073 99.4161C83.1948 98.9426 84.0292 98.5491 84.8771 98.1923C85.7349 97.8555 86.6129 97.5687 87.5077 97.3387C88.4058 97.1219 89.3106 96.9318 90.2255 96.8218V96.8151Z" fill="#EFDCAA"/>
</g>
<path d="M67.6691 100.673V95.825C67.6691 95.825 60.8026 79.769 36.6911 86.785C30.3675 88.6257 24.121 90.8565 10.3947 88.4256L4.11133 103.535L60.5077 104.428L67.6691 100.673Z" fill="#FFFBD9"/>
<mask id="mask1_260_2874" style="mask-type:luminance" maskUnits="userSpaceOnUse" x="4" y="85" width="64" height="20">
<path d="M67.6691 100.673V95.825C67.6691 95.825 60.8026 79.769 36.6911 86.785C30.3675 88.6257 24.121 90.8565 10.3947 88.4256L4.11133 103.535L60.5077 104.428L67.6691 100.673Z" fill="white"/>
</mask>
<g mask="url(#mask1_260_2874)">
<path d="M57.8438 88.7825C57.8438 88.7825 58.0315 88.8959 57.7064 88.7658C56.6877 88.339 55.8298 88.0689 54.7407 87.8855L54.6569 87.8955C53.8191 87.7488 52.9377 87.6587 52.0363 87.622C50.3808 87.592 48.7388 87.7021 47.1235 87.9222C47.1671 87.9255 47.1872 87.9322 47.0263 87.9555C46.3561 88.0455 45.4278 88.1823 44.4728 88.349C44.332 88.3757 44.1913 88.4023 44.0539 88.429C43.9466 88.4557 43.9198 88.469 43.9031 88.4757C43.4741 88.5557 43.0921 88.6291 42.7369 88.6958C40.4145 89.1893 38.1022 89.7662 35.7129 90.2464C33.3235 90.7332 30.8537 91.1267 28.2733 91.4368C27.1809 91.5735 26.0884 91.7002 25.0294 91.7803C23.4644 91.9036 21.4571 91.977 19.9256 91.9937C20.0429 92.0337 19.1683 92.087 18.3573 92.1171C17.5463 92.1537 16.7957 92.1671 17.1677 92.2171C16.1456 92.2071 14.6074 92.1471 14.5303 92.1637C14.4097 92.1938 14.1516 92.2271 13.5819 92.2271C13.0122 92.2204 12.1275 92.2071 10.7603 92.0003C10.2274 91.9137 9.55721 91.7636 8.98081 91.5902C8.40442 91.4235 7.9252 91.2301 7.74424 91.17C7.4661 91.0733 7.77775 91.2134 8.10952 91.3468C8.43793 91.4768 8.77304 91.5969 8.48149 91.5135C10.4151 92.1537 12.4191 92.3505 14.3728 92.4472C16.3299 92.5305 18.2769 92.5539 20.2272 92.5139C24.1246 92.4372 28.0254 92.1071 31.9763 91.5268C32.6466 91.4201 34.2819 91.1634 36.4166 90.7399C38.5479 90.3197 41.1585 89.6928 43.8427 89.1726C46.5237 88.6458 49.295 88.309 51.6777 88.3423C52.8674 88.3557 53.9531 88.4624 54.868 88.6358C55.7829 88.8092 56.5268 89.0392 57.0529 89.2493L57.435 89.4094C58.5811 89.8896 59.754 90.6265 60.7593 91.5002C61.7713 92.3672 62.6125 93.3509 63.2526 94.1978C63.8491 94.9681 64.3785 95.8118 64.8812 96.6688C64.6701 96.2586 64.4724 95.8785 64.2948 95.555C64.8142 96.422 65.2733 97.3223 65.4509 97.6691C65.9301 98.6362 66.0206 98.8529 65.9938 98.7129C65.967 98.5728 65.776 98.096 65.6252 97.7058C65.3872 97.1523 65.7894 97.8625 65.3872 97.0122C65.5447 97.3123 65.652 97.5424 65.7592 97.7758C65.8631 98.0093 65.9837 98.236 66.1111 98.5528C66.1915 98.6028 65.2096 96.6621 65.4476 97.0722C65.7357 97.6591 66.0575 98.3194 66.3155 98.9496C66.2853 98.8362 66.0675 98.286 65.8296 97.7925C65.6084 97.2923 65.3671 96.8488 65.4073 96.8855C65.6017 97.2023 66.1949 98.6328 66.2719 98.7395C66.292 98.7595 66.0273 98.1326 65.8765 97.8259C66.3289 98.7729 66.6305 99.5298 66.7545 99.8166C66.8785 100.103 66.8416 99.9166 66.5032 99.0163C66.7612 99.6332 67.0662 100.524 67.294 101.19C67.294 101.19 67.294 101.187 67.294 101.184C67.1767 100.854 66.9958 100.273 66.8751 99.97C67.0192 100.343 67.1399 100.724 67.2739 101.104C67.2572 101.04 67.2404 100.97 67.2203 100.9C67.1265 100.617 67.0393 100.33 66.9254 100.037C67.0226 100.283 67.0997 100.537 67.1901 100.79C67.1365 100.597 67.0762 100.377 67.0025 100.137C66.6975 99.2397 66.3792 98.3827 66.1613 97.9159C65.3035 96.0218 64.2311 94.2012 62.8605 92.5972C61.4932 91.0033 59.8009 89.6261 57.8405 88.7858L57.8438 88.7825Z" fill="#EFDCAA"/>
<path d="M52.7775 93.7241C52.7775 93.7241 52.9685 93.7975 52.6502 93.7341C51.6415 93.5807 50.8405 93.4073 49.8285 93.2606L49.7514 93.274C48.9673 93.1806 48.1496 93.1106 47.3151 93.0239L46.7387 92.9772L46.1623 92.9638L45.0096 92.9438L43.8601 92.9238C43.4781 92.9305 43.0961 92.9505 42.714 92.9605C42.7542 92.9672 42.7743 92.9772 42.6202 92.9838C42.3018 92.9939 41.9265 93.0072 41.511 93.0205C41.3032 93.0272 41.0887 93.0305 40.8675 93.0372C40.6464 93.0505 40.4218 93.0672 40.1973 93.0839C40.0633 93.0939 39.9292 93.1072 39.7985 93.1172C39.6946 93.1306 39.6712 93.1406 39.6544 93.1472C39.2456 93.1739 38.8803 93.2006 38.5419 93.2239C34.0949 93.6374 29.6412 94.4377 24.8089 95.178C23.7901 95.3481 22.768 95.5115 21.7794 95.6415C20.3183 95.8482 18.4417 96.015 17.0074 96.1384C17.2353 96.2117 13.7333 96.4818 14.4371 96.5252C13.4753 96.5485 12.031 96.5719 11.9572 96.5985C11.7327 96.6919 10.9921 96.7619 8.42514 96.7052C7.42315 96.6152 5.89168 96.4318 5.53646 96.4118C4.97682 96.3784 6.82665 96.5952 6.27036 96.5619C9.99012 97.0154 13.6764 96.9487 17.3258 96.6419C20.9752 96.3251 24.5978 95.7782 28.2907 95.238C29.5474 95.058 34.4032 94.221 39.5204 93.8375C40.8005 93.7175 42.0941 93.6975 43.3507 93.6541C43.6657 93.6374 43.9774 93.6408 44.2857 93.6508C44.594 93.6574 44.899 93.6641 45.2006 93.6708C45.8004 93.6908 46.3902 93.6774 46.9499 93.7241C47.5095 93.7708 48.0457 93.8175 48.5551 93.8608C49.0611 93.9109 49.5436 93.9275 49.9793 94.0109C50.8539 94.151 51.5878 94.2677 52.1274 94.3544C52.2581 94.3777 52.3888 94.391 52.5195 94.4177C53.6823 94.6511 54.9524 94.9946 56.1387 95.4248C57.3284 95.8516 58.4309 96.3718 59.2921 96.872C60.083 97.3288 60.8705 97.829 61.5675 98.4359C61.41 98.2892 61.2559 98.1491 61.1118 98.0157C60.9677 97.8823 60.8169 97.7723 60.6828 97.6623C61.0716 97.9357 61.4167 98.2558 61.7217 98.5126C62.0099 98.7894 62.2411 99.0194 62.3752 99.1428C62.7036 99.5063 62.908 99.7297 63.0286 99.8631C63.1325 99.9898 63.1526 99.9998 63.1258 99.9398C63.0789 99.8097 62.774 99.4396 62.5461 99.1195C62.1741 98.696 62.7404 99.2128 62.1305 98.5659C62.593 99.0094 62.7941 99.2595 63.2029 99.7564C63.2465 99.7697 62.9147 99.3996 62.6232 99.0594C62.3149 98.736 62.0233 98.4592 62.1976 98.5993C62.3082 98.7093 62.4187 98.8227 62.5327 98.9361C62.6466 99.0528 62.7472 99.1795 62.8577 99.3029L63.1828 99.6763C63.28 99.8097 63.3772 99.9431 63.471 100.073C63.4442 100.023 63.3504 99.8831 63.2264 99.7064C63.0923 99.533 62.9147 99.3329 62.7505 99.1328C62.412 98.7427 62.0568 98.4192 62.1104 98.4392C62.3819 98.6626 63.3202 99.7864 63.3906 99.8898C63.4006 99.8998 63.3168 99.7664 63.1929 99.6097C63.0655 99.4596 62.908 99.2729 62.8008 99.1495C62.9616 99.3396 63.1225 99.513 63.2565 99.6797C63.3839 99.8531 63.5045 100.013 63.6117 100.157C63.8329 100.433 63.9569 100.673 64.044 100.793C64.1278 100.917 64.1513 100.937 64.0977 100.827C64.0641 100.767 64.0206 100.68 63.9569 100.56C63.9234 100.497 63.8832 100.427 63.8396 100.347C63.786 100.27 63.729 100.187 63.6654 100.09C63.8631 100.34 64.0373 100.683 64.2384 101.017C64.4294 101.354 64.5735 101.72 64.7277 102.021C64.7277 102.021 64.7277 102.021 64.7277 102.017C64.6573 101.864 64.5601 101.657 64.4663 101.454C64.4194 101.35 64.3725 101.25 64.3289 101.157C64.2753 101.067 64.2284 100.987 64.1915 100.92L64.3356 101.167L64.4596 101.427L64.7042 101.944C64.6808 101.884 64.6573 101.82 64.6338 101.757C64.5099 101.5 64.4127 101.227 64.2518 100.974C64.3892 101.187 64.4797 101.427 64.5936 101.654C64.5199 101.477 64.4495 101.267 64.3423 101.054C64.1211 100.657 63.9201 100.257 63.6855 99.9398C63.5749 99.7764 63.4743 99.6197 63.3772 99.4896C63.2699 99.3596 63.1761 99.2462 63.099 99.1528C62.4556 98.3925 61.7183 97.709 60.9141 97.1287C60.1132 96.5452 59.262 96.0217 58.3706 95.5948C56.5945 94.7212 54.6977 94.1209 52.7775 93.7208V93.7241Z" fill="#EFDCAA"/>
<path d="M48.0419 99.4502C48.0419 99.4502 48.2329 99.4902 47.9246 99.4802C46.9528 99.4502 46.172 99.3901 45.2001 99.4135L45.1298 99.4402C44.3791 99.4402 43.5983 99.4502 42.8007 99.4768C41.3329 99.5502 39.8819 99.6636 38.4375 99.7769C38.4744 99.7836 38.4945 99.7903 38.3504 99.8036C37.7472 99.8503 36.9161 99.9103 36.0549 99.977C35.9275 99.987 35.8002 100 35.6762 100.01C35.579 100.024 35.5555 100.034 35.5388 100.04C35.1501 100.07 34.8015 100.097 34.4798 100.12C30.254 100.514 25.9713 100.954 21.3132 101.231C20.328 101.288 19.3427 101.364 18.3944 101.388C16.9869 101.434 15.1873 101.428 13.8167 101.394C13.9206 101.441 13.1364 101.454 12.4092 101.471C11.682 101.478 11.0084 101.471 11.3402 101.531C10.8811 101.508 10.3114 101.478 9.84224 101.454C9.37643 101.418 9.01451 101.394 8.97764 101.404C8.75982 101.451 8.04603 101.524 5.6131 101.271C4.66137 101.167 3.21703 100.894 2.87856 100.864C2.34908 100.807 4.09503 101.104 3.5689 101.047C10.613 102.188 17.5097 102.064 24.6241 101.611C25.234 101.564 26.7085 101.451 28.6421 101.301C30.5758 101.137 32.9718 100.937 35.4249 100.731C37.8745 100.534 40.3812 100.334 42.5326 100.22C44.6841 100.107 46.4836 100.117 47.5225 100.167L47.9012 100.18C49.0338 100.24 50.2872 100.35 51.4802 100.547C52.6732 100.734 53.8092 101.007 54.7241 101.281C55.5652 101.524 56.4097 101.818 57.224 102.175C56.8554 101.988 56.5102 101.818 56.2053 101.688C57.0498 102.021 57.8574 102.435 58.1691 102.588C59.0236 103.038 59.1979 103.155 59.1074 103.061C59.0169 102.971 58.6315 102.718 58.3199 102.508C57.854 102.235 58.5209 102.538 57.7837 102.121C58.3266 102.405 58.5947 102.548 59.1174 102.868C59.1576 102.871 58.7488 102.635 58.3768 102.425C57.9981 102.228 57.6597 102.048 57.8574 102.128C58.3768 102.405 58.9633 102.715 59.4727 103.051C59.3922 102.981 58.9465 102.691 58.5176 102.448C58.0886 102.208 57.6831 102.001 57.7301 102.008C57.8809 102.078 58.2595 102.285 58.6081 102.491C58.9566 102.695 59.2749 102.901 59.3353 102.915C59.3487 102.915 59.2247 102.838 59.0638 102.735C58.8996 102.638 58.7019 102.521 58.5678 102.445C59.3989 102.898 60.0021 103.325 60.2401 103.472C60.4713 103.632 60.3607 103.498 59.6536 102.988C60.1563 103.322 60.8265 103.852 61.3124 104.265C61.0712 104.055 60.6523 103.698 60.4143 103.525C60.7059 103.738 60.984 103.972 61.2622 104.205C61.2186 104.162 61.175 104.119 61.1281 104.072C60.9271 103.892 60.7159 103.718 60.488 103.548C60.6791 103.692 60.8701 103.842 61.0544 103.999C60.9271 103.872 60.7729 103.728 60.5986 103.585C59.9318 103.038 59.2515 102.565 58.8426 102.338C55.5686 100.431 51.765 99.6269 48.0486 99.4435L48.0419 99.4502Z" fill="#EFDCAA"/>
<path d="M54.1846 90.8632C54.1846 90.8632 54.3824 90.9499 54.0472 90.8632C52.995 90.6164 52.1405 90.4164 51.0614 90.3197L50.981 90.3363C50.1499 90.243 49.2786 90.1963 48.3905 90.1963C46.7552 90.2163 45.1399 90.3864 43.5481 90.6231C43.5917 90.6231 43.6118 90.6331 43.4543 90.6565C42.7941 90.7598 41.8793 90.8999 40.9376 91.0666C40.8002 91.0933 40.6594 91.12 40.522 91.1466C40.4148 91.17 40.3913 91.1867 40.3746 91.1933C39.949 91.27 39.5737 91.34 39.2218 91.4034C34.6441 92.3571 29.9693 93.1641 24.8488 93.7176C23.7697 93.8476 22.6839 93.9644 21.6417 94.0511C20.0935 94.1778 18.113 94.2811 16.5982 94.3312C16.8362 94.4245 13.1399 94.5646 13.8805 94.6313C12.8684 94.6546 11.3504 94.6579 11.2733 94.6813C11.156 94.718 10.9013 94.7613 10.3383 94.7847C9.77532 94.8013 8.89732 94.838 7.5334 94.6313C7.00057 94.5446 6.33034 94.3712 5.7707 94.1511C5.20436 93.9377 4.75866 93.6709 4.5844 93.5875C4.32636 93.4508 4.60786 93.6342 4.92286 93.8176C5.23452 93.9877 5.55958 94.1444 5.27473 94.0277C6.2097 94.4512 7.20499 94.688 8.19358 94.8113C9.18216 94.9414 10.164 94.9647 11.1325 94.9681C13.0661 94.9647 14.9863 94.9247 16.9099 94.8414C20.757 94.678 24.6008 94.3578 28.5115 93.871C29.1751 93.781 30.797 93.5642 32.9149 93.2274C35.0362 92.9006 37.6535 92.4004 40.3109 91.8869C42.9684 91.3801 45.6996 90.9666 48.0588 90.9232C50.418 90.8632 52.3717 91.17 53.4742 91.4434L53.8763 91.5368C55.0727 91.8502 56.3729 92.3171 57.5224 92.9573C58.6785 93.5876 59.6872 94.3712 60.4211 95.1115C61.1115 95.775 61.7314 96.5387 62.3045 97.3323C62.0598 96.9488 61.8219 96.5987 61.6074 96.3019C62.224 97.0855 62.7468 97.9392 62.9646 98.2593C63.531 99.163 63.6516 99.363 63.6081 99.2297C63.5611 99.0963 63.3299 98.6428 63.1422 98.276C62.854 97.7558 63.3132 98.4194 62.8406 97.6157C63.1992 98.1826 63.3735 98.4727 63.7052 99.0563C63.7354 99.0829 63.4774 98.6328 63.2327 98.2359C62.9881 97.8358 62.7602 97.4823 62.9043 97.6691C63.2461 98.2193 63.6248 98.8395 63.9499 99.4264C63.9097 99.3164 63.6282 98.8062 63.35 98.3393C63.0752 97.8725 62.8038 97.4523 62.844 97.489C63.0618 97.7858 63.7924 99.1263 63.8829 99.2263C63.903 99.243 63.5745 98.6561 63.3969 98.3693C63.9365 99.2563 64.3185 99.9633 64.4794 100.227C64.6369 100.49 64.5765 100.313 64.1409 99.4731C64.4593 100.05 64.8748 100.88 65.1965 101.494C65.1965 101.494 65.1965 101.494 65.1965 101.49C65.039 101.184 64.7642 100.65 64.6201 100.367C64.8011 100.717 64.9854 101.064 65.1663 101.414C65.1429 101.354 65.1161 101.29 65.0859 101.224C64.9519 100.96 64.8178 100.697 64.6771 100.423C64.7977 100.654 64.9184 100.887 65.039 101.12C64.9552 100.934 64.8614 100.73 64.7642 100.51C64.3554 99.6732 63.9499 98.8695 63.6918 98.4294C62.6597 96.662 61.4265 94.9347 59.7777 93.6109C58.139 92.2837 56.1886 91.3934 54.1779 90.8665L54.1846 90.8632Z" fill="#EFDCAA"/>
<path d="M50.0362 96.0386C50.0362 96.0386 50.2272 96.0953 49.9122 96.0586C48.9237 95.9586 48.1328 95.8419 47.1408 95.8319L47.0705 95.8552C46.3064 95.8219 45.5088 95.8185 44.6945 95.8385C43.1966 95.9019 41.7187 96.0486 40.2509 96.232C40.2911 96.2354 40.3079 96.242 40.1638 96.262C39.5539 96.3421 38.7127 96.4521 37.8414 96.5655C37.7141 96.5855 37.5834 96.6055 37.4594 96.6255C37.3622 96.6455 37.3354 96.6589 37.322 96.6655C36.9299 96.7189 36.5814 96.7689 36.2563 96.8156C32.0104 97.5192 27.6841 98.0961 22.959 98.4362C21.9604 98.5229 20.9617 98.5896 19.9966 98.6396C18.569 98.7063 16.7426 98.7263 15.3486 98.7263C15.563 98.8263 12.1616 98.8397 12.8386 98.9297C11.9069 98.9197 10.5095 98.833 10.4358 98.843C10.3252 98.873 10.0873 98.8964 9.56784 98.883C9.04842 98.8597 8.24079 98.8163 7.00757 98.5662C6.52501 98.4695 5.92515 98.2928 5.40573 98.1194C4.88965 97.9393 4.4607 97.7559 4.2965 97.6959C4.04516 97.6025 4.32666 97.7359 4.62156 97.8693C4.91311 98.006 5.21471 98.1161 4.94997 98.0394C6.68251 98.6829 8.49213 98.9831 10.2816 99.1231C12.0745 99.2632 13.8439 99.2565 15.6167 99.2498C19.1588 99.2231 22.7077 99.0598 26.3202 98.7496C26.9335 98.6863 28.4314 98.5496 30.3952 98.3128C32.359 98.0894 34.7785 97.7226 37.2449 97.3558C39.7114 96.989 42.2348 96.6722 44.4097 96.5788C46.5846 96.4688 48.4042 96.5855 49.4464 96.7089C49.5738 96.7222 49.7011 96.7322 49.8251 96.7522C50.9645 96.8956 52.2111 97.1424 53.3874 97.4858C54.5636 97.826 55.6595 98.2628 56.5341 98.6763C57.3451 99.0397 58.1259 99.4966 58.8732 99.9934C58.5448 99.7333 58.2197 99.5199 57.9483 99.3198C58.7257 99.8134 59.4563 100.364 59.7277 100.587C60.1064 100.897 60.3376 101.084 60.4516 101.194C60.5722 101.297 60.5957 101.307 60.5588 101.254C60.522 101.201 60.4248 101.087 60.3041 100.954C60.1768 100.827 60.0293 100.68 59.8919 100.544C59.4898 100.174 60.093 100.604 59.4362 100.053C59.6875 100.234 59.8584 100.394 60.036 100.544C60.2103 100.697 60.3946 100.84 60.6124 101.067C60.713 101.064 59.158 99.8267 59.5099 100.077C59.9757 100.45 60.4918 100.884 60.9241 101.331C60.8537 101.247 60.4918 100.847 60.1031 100.53C59.7344 100.194 59.3591 99.9234 59.406 99.9367C59.7043 100.107 60.7163 101.101 60.8169 101.167C60.8403 101.177 60.4013 100.734 60.1567 100.54C60.8906 101.161 61.3899 101.721 61.5876 101.927C61.7853 102.134 61.7016 101.981 61.1185 101.317C61.3363 101.534 61.5642 101.827 61.8121 102.108C62.0434 102.401 62.2612 102.711 62.4623 102.968C62.2645 102.708 61.9529 102.244 61.7485 102.021C61.9931 102.298 62.1975 102.604 62.4221 102.898C62.3885 102.844 62.355 102.791 62.3215 102.734C62.1573 102.514 62.0032 102.281 61.8188 102.064C61.9797 102.248 62.1171 102.454 62.2679 102.648C62.1674 102.494 62.0534 102.314 61.9194 102.124C61.3765 101.437 60.8068 100.81 60.4482 100.5C59.7411 99.8467 58.9503 99.2965 58.1393 98.7863C57.3216 98.2828 56.4537 97.866 55.5723 97.4925C54.6809 97.1357 53.7728 96.8323 52.8478 96.5922C51.9196 96.3654 50.9846 96.1653 50.0396 96.0486L50.0362 96.0386Z" fill="#EFDCAA"/>
</g>
<mask id="mask2_260_2874" style="mask-type:luminance" maskUnits="userSpaceOnUse" x="3" y="94" width="135" height="12">
<path d="M136.13 102.521H79.321C79.0764 97.9497 75.2762 94.3184 70.6214 94.3184C65.9667 94.3184 62.1665 97.9497 61.9219 102.521H5.11332C4.25542 102.521 3.48801 103.145 3.40423 103.999C3.3104 104.976 4.08116 105.796 5.04294 105.796H65.4406L65.4238 105.653C65.1859 103.542 66.1845 101.431 68.0545 100.407C68.8152 99.9905 69.6898 99.7537 70.6214 99.7537C71.5531 99.7537 72.4243 99.9905 73.1884 100.407C75.0617 101.431 76.0603 103.542 75.8191 105.653L75.8023 105.796H136.2C137.162 105.796 137.932 104.976 137.839 103.999C137.758 103.148 136.991 102.521 136.13 102.521Z" fill="white"/>
</mask>
<g mask="url(#mask2_260_2874)">
<path d="M139.394 93.0049H0.569336V107.974H139.394V93.0049Z" fill="#964CA2"/>
<path d="M1.35379 104.232H141.743L141.117 107.037L1.19629 106.26L1.35379 104.232Z" fill="#B110A9"/>
</g>
<path d="M20.5759 92.0075C20.5759 92.0075 19.7482 100.731 20.5759 105.009L23.3037 102.295L28.5147 105.009C28.5147 105.009 26.8593 95.959 28.5147 91.3506L20.5759 92.0075Z" fill="#F8441F"/>
</g>
<defs>
<clipPath id="clip0_260_2874">
<rect width="141.485" height="107.28" fill="white" transform="translate(0.257812 0.693359)"/>
</clipPath>
</defs>
</svg>
